<svg xmlns="http://www.w3.org/2000/svg" xmlns:xlink="http://www.w3.org/1999/xlink" width="11" height="10" viewBox="0 0 11 10"><defs><path id="k07ea" d="M25.21 858.7l-2.47 1.76.94 2.87c.06.15 0 .32-.13.42a.38.38 0 0 1-.45 0l-2.48-1.77-2.47 1.77c-.14.1-.32.1-.45 0a.37.37 0 0 1-.14-.42l.94-2.87-2.47-1.77a.37.37 0 0 1-.14-.42c.05-.15.2-.26.36-.26h3.06l.95-2.86a.38.38 0 0 1 .73 0l.94 2.86H25c.17 0 .31.1.36.26.05.16 0 .33-.14.42z"/></defs><g><g transform="translate(-15 -854)"><use fill="#f99f31" xlink:href="#k07ea"/></g></g></svg>