<svg xmlns="http://www.w3.org/2000/svg" xmlns:xlink="http://www.w3.org/1999/xlink" width="16" height="15" viewBox="0 0 16 15"><defs><path id="buo8a" d="M176.53 13.16l-2.08 6.36a.5.5 0 0 1-.48.34h-7.52l-.45 1.22h7.97c.23 0 .42.18.42.4 0 .23-.19.41-.42.41h-.47c.24.26.39.6.39.98 0 .81-.67 1.47-1.5 1.47-.82 0-1.5-.66-1.5-1.47 0-.37.15-.72.39-.98h-3.26c.23.26.38.6.38.98 0 .81-.67 1.47-1.5 1.47-.82 0-1.5-.66-1.5-1.47 0-.37.15-.72.4-.98h-.4a.42.42 0 0 1-.33-.17.4.4 0 0 1-.05-.37l.54-1.5h-.24a.5.5 0 0 1-.49-.4l-1.44-7.71-2.07-.8a.49.49 0 0 1-.29-.63.5.5 0 0 1 .65-.28l2.33.9c.16.06.28.2.3.37l1.43 7.58h7.87l1.77-5.4-9-.38a.5.5 0 0 1-.47-.51.5.5 0 0 1 .52-.47l9.64.4c.16.01.3.09.39.21.09.13.11.29.07.43zm-8.96 9.71c0-.36-.3-.65-.67-.65-.36 0-.66.3-.66.65 0 .36.3.65.66.65.37 0 .67-.29.67-.65zm5.49 0c0-.36-.3-.65-.67-.65-.36 0-.66.3-.66.65 0 .36.3.65.66.65.37 0 .67-.29.67-.65z"/></defs><g><g transform="translate(-161 -10)"><use xlink:href="#buo8a"/></g></g></svg>