<svg xmlns="http://www.w3.org/2000/svg" xmlns:xlink="http://www.w3.org/1999/xlink" width="23" height="19" viewBox="0 0 23 19"><defs><path id="be0aa" d="M32.96 122.25v13.31c0 .25-.07.47-.19.67-.25.45-.64.68-1.17.68h-7.39v1.84h1.4c.35 0 .63.27.63.61 0 .35-.28.62-.62.62h-8.28a.6.6 0 0 1-.62-.62.6.6 0 0 1 .62-.6h1.4v-1.85h-7.4c-.52 0-.9-.23-1.16-.68a1.3 1.3 0 0 1-.18-.67v-13.3c.08-.64.57-1.16 1.24-1.2v-.04h20.48v.03c.64.05 1.16.57 1.24 1.2zm-1.24.11v-.1H11.24v13.3c0 .08.03.12.1.12H31.6c.08 0 .12-.04.12-.12v-13.2z"/></defs><g><g transform="translate(-10 -121)"><use xlink:href="#be0aa"/></g></g></svg>