<svg width="140" height="50" viewBox="0 0 140 50" version="1.1" xmlns="http://www.w3.org/2000/svg" xmlns:xlink="http://www.w3.org/1999/xlink">
<title>Rectangle 5</title>
<desc>Created using Figma</desc>
<g id="Canvas" transform="translate(-6278 -706)">
<g id="Rectangle 5">
<use xlink:href="#path0_fill" transform="translate(6278 706)" fill="#D8D8D8"/>
<mask id="mask0_outline_ins">
<use xlink:href="#path0_fill" fill="white" transform="translate(6278 706)"/>
</mask>
<g mask="url(#mask0_outline_ins)">
<use xlink:href="#path1_stroke_2x" transform="translate(6278 706)" fill="#979797"/>
</g>
</g>
</g>
<defs>
<path id="path0_fill" fill-rule="evenodd" d="M 0 0L 140 0L 140 50L 0 50L 0 0Z"/>
<path id="path1_stroke_2x" d="M 0 0L 0 -1L -1 -1L -1 0L 0 0ZM 140 0L 141 0L 141 -1L 140 -1L 140 0ZM 140 50L 140 51L 141 51L 141 50L 140 50ZM 0 50L -1 50L -1 51L 0 51L 0 50ZM 0 1L 140 1L 140 -1L 0 -1L 0 1ZM 139 0L 139 50L 141 50L 141 0L 139 0ZM 140 49L 0 49L 0 51L 140 51L 140 49ZM 1 50L 1 0L -1 0L -1 50L 1 50Z"/>
</defs>
</svg>
