<svg width="17" height="11" viewBox="0 0 17 11" version="1.1" xmlns="http://www.w3.org/2000/svg" xmlns:xlink="http://www.w3.org/1999/xlink">
<title>Shape</title>
<desc>Created using Figma</desc>
<g id="Canvas" transform="translate(-5602 -1444)">
<g id="Shape">
<use xlink:href="#path0_fill" transform="translate(5602 1444)" fill="#FF6633"/>
</g>
</g>
<defs>
<path id="path0_fill" fill-rule="evenodd" d="M 8.3999 0C 4.73633 0 1.56055 2.13354 0 5.25C 1.56055 8.36646 4.73633 10.5 8.3999 10.5C 12.0635 10.5 15.2393 8.36646 16.7998 5.25C 15.2393 2.13354 12.0635 0 8.3999 0ZM 12.542 2.78418C 13.5288 3.41382 14.3652 4.25708 14.9937 5.25C 14.3652 6.24292 13.5288 7.08618 12.542 7.71582C 11.3018 8.50684 9.86914 8.92505 8.3999 8.92505C 6.93066 8.92505 5.49854 8.50684 4.2583 7.71582C 3.27148 7.08618 2.43506 6.24292 1.80664 5.25C 2.43506 4.25708 3.27148 3.41382 4.2583 2.78418C 4.32275 2.74316 4.3877 2.70349 4.45264 2.66443C 4.28955 3.11279 4.2002 3.59668 4.2002 4.10156C 4.2002 6.42114 6.08057 8.30164 8.3999 8.30164C 10.7197 8.30164 12.6001 6.42114 12.6001 4.10156C 12.6001 3.59668 12.5107 3.11279 12.3472 2.66443C 12.4126 2.70349 12.4775 2.74316 12.542 2.78418ZM 6.8252 5.15161C 7.69482 5.15161 8.3999 4.44641 8.3999 3.57654C 8.3999 2.70679 7.69482 2.00159 6.8252 2.00159C 5.95508 2.00159 5.25 2.70679 5.25 3.57654C 5.25 4.44641 5.95508 5.15161 6.8252 5.15161Z"/>
</defs>
</svg>
