<svg width="17" height="17" viewBox="0 0 17 17" version="1.1" xmlns="http://www.w3.org/2000/svg" xmlns:xlink="http://www.w3.org/1999/xlink">
<title>percentage</title>
<desc>Created using Figma</desc>
<g id="Canvas" transform="translate(-5551 -1862)">
<g id="percentage">
<g id="Shape">
<use xlink:href="#path0_fill" transform="translate(5551.01 1862)" fill="#FF6633"/>
</g>
<g id="Shape">
<use xlink:href="#path1_fill" transform="translate(5551 1862.01)" fill="#FF6633"/>
</g>
<g id="Shape">
<use xlink:href="#path2_fill" transform="translate(5560.14 1871.14)" fill="#FF6633"/>
</g>
</g>
</g>
<defs>
<path id="path0_fill" d="M 16.2671 0.227004C 15.9648 -0.075668 15.4743 -0.075668 15.172 0.227004L 0.226907 15.1721C -0.0756357 15.4746 -0.0756357 15.9647 0.226907 16.2671C 0.378114 16.4184 0.576372 16.4941 0.774501 16.4941C 0.97263 16.4941 1.17089 16.4184 1.32197 16.2671L 16.2671 1.32193C 16.5696 1.01952 16.5696 0.529418 16.2671 0.227004Z"/>
<path id="path1_fill" fill-rule="evenodd" d="M 0 3.67859C 0 1.65039 1.65039 0 3.67871 0C 5.70654 0 7.35693 1.65027 7.35693 3.67847C 7.35693 5.70667 5.70703 7.35706 3.67871 7.35706C 1.65039 7.35706 0 5.70679 0 3.67859ZM 1.54883 3.67847C 1.54883 4.85266 2.50439 5.80811 3.67871 5.80811C 4.85303 5.80811 5.80811 4.85266 5.80811 3.67847C 5.80811 2.50427 4.85303 1.54883 3.67871 1.54883C 2.50439 1.54883 1.54883 2.50427 1.54883 3.67847Z"/>
<path id="path2_fill" fill-rule="evenodd" d="M 0 3.67847C 0 1.65027 1.65039 0 3.67871 0C 5.70654 0 7.35693 1.65015 7.35693 3.67847C 7.35693 5.70679 5.70654 7.35693 3.67871 7.35693C 1.65039 7.35693 0 5.70667 0 3.67847ZM 1.54883 3.67834C 1.54883 4.85254 2.50439 5.80798 3.67871 5.80798C 4.85303 5.80798 5.80811 4.85254 5.80811 3.67834C 5.80811 2.50415 4.85254 1.54871 3.67871 1.54871C 2.50439 1.54871 1.54883 2.50415 1.54883 3.67834Z"/>
</defs>
</svg>
