<svg width="110" height="110" viewBox="0 0 110 110" version="1.1" xmlns="http://www.w3.org/2000/svg" xmlns:xlink="http://www.w3.org/1999/xlink">
<title>tick</title>
<desc>Created using Figma</desc>
<g id="Canvas" transform="translate(-1575 -508)">
<g id="tick">
<g id="Rectangle">
<use xlink:href="#path0_fill" transform="translate(1575 508)" fill="#6BBC12"/>
</g>
<g id="+1">
<use xlink:href="#path1_fill" transform="translate(1619 547)" fill="#FFFFFF"/>
</g>
<g id="Shape">
<use xlink:href="#path2_fill" transform="translate(1600.62 540)" fill="#FFFFFF"/>
</g>
</g>
</g>
<defs>
<path id="path0_fill" fill-rule="evenodd" d="M 0 55C 0 24.6243 24.6243 0 55 0C 85.3757 0 110 24.6243 110 55C 110 85.3757 85.3757 110 55 110C 24.6243 110 0 85.3757 0 55Z"/>
<path id="path1_fill" d="M 12.912 16.064L 8.736 16.064L 8.736 20.144L 5.64 20.144L 5.64 16.064L 1.488 16.064L 1.488 13.136L 5.64 13.136L 5.64 9.056L 8.736 9.056L 8.736 13.136L 12.912 13.136L 12.912 16.064ZM 21.2676 6.2L 21.2676 23L 17.3796 23L 17.3796 9.32L 14.0196 9.32L 14.0196 6.2L 21.2676 6.2Z"/>
<path id="path2_fill" fill-rule="evenodd" d="M 44.9546 2.85547C 49.5411 4.75922 53.1704 7.35339 55.8422 10.6373C 58.5143 13.9213 59.8501 17.5008 59.85 21.3745C 59.85 25.2488 58.514 28.8281 55.8419 32.112C 53.1702 35.396 49.5409 37.9892 44.9543 39.8932C 40.3678 41.7975 35.3577 42.7491 29.9248 42.7491C 28.3665 42.7491 26.7521 42.6602 25.0823 42.4821C 20.674 46.3789 15.5526 49.0731 9.71887 50.5647C 8.62805 50.8766 7.35901 51.1207 5.91138 51.2992L 5.74414 51.2992C 5.41052 51.2992 5.1095 51.1824 4.84229 50.9493C 4.57507 50.7156 4.39722 50.4092 4.30798 50.0309L 4.30798 49.9973C 4.24133 49.9084 4.2356 49.7747 4.29138 49.5962C 4.34705 49.4185 4.36938 49.3073 4.35815 49.2623C 4.34705 49.2184 4.39722 49.1122 4.50867 48.9462L 4.70898 48.6455C 4.70898 48.6455 4.78723 48.5515 4.94287 48.3625C 5.09875 48.1723 5.18762 48.0728 5.21021 48.0615C 5.36584 47.8833 5.71118 47.4985 6.24524 46.9088C 6.77991 46.3184 7.16394 45.896 7.39758 45.6398C 7.63147 45.3837 7.97656 44.9437 8.43262 44.3199C 8.8894 43.697 9.25085 43.129 9.51831 42.6173C 9.78552 42.1049 10.0861 41.4479 10.42 40.6465C 10.7542 39.8443 11.0435 38.9984 11.2887 38.108C 7.7926 36.1265 5.0376 33.6769 3.02246 30.7602C 1.0072 27.8435 0 24.7143 0 21.3746C 0 17.5004 1.33582 13.9213 4.00781 10.6373C 6.67981 7.35291 10.309 4.75922 14.8956 2.85547C 19.4823 0.951721 24.4923 0 29.925 0C 35.3579 0 40.368 0.951721 44.9546 2.85547ZM 42.6658 36.1533C 46.6179 34.6061 49.7573 32.5184 52.0847 29.8915C 54.4114 27.2642 55.5746 24.4248 55.5746 21.3745C 55.5746 18.3243 54.4114 15.4855 52.0846 12.8582C 49.7571 10.231 46.6177 8.14362 42.6656 6.59607C 38.7136 5.04865 34.467 4.2746 29.9249 4.2746C 25.3824 4.2746 21.1357 5.04901 17.1835 6.59656C 13.2311 8.14398 10.092 10.2314 7.76477 12.8586C 5.43811 15.486 4.27478 18.3246 4.27478 21.3751C 4.27478 23.8687 5.07043 26.246 6.6626 28.5056C 8.25488 30.7657 10.4979 32.7193 13.3925 34.3679L 16.298 36.0372L 15.3964 39.2438C 14.8617 41.2696 14.0824 43.1847 13.0583 44.9878C 16.4427 43.585 19.5045 41.6816 22.2428 39.2767L 23.679 38.0073L 25.5828 38.207C 27.119 38.3856 28.5662 38.4745 29.9242 38.4745C 34.4663 38.4745 38.7137 37.7002 42.6658 36.1533Z"/>
</defs>
</svg>
