<svg width="30" height="29" viewBox="0 0 30 29" version="1.1" xmlns="http://www.w3.org/2000/svg" xmlns:xlink="http://www.w3.org/1999/xlink">
<title>Shape</title>
<desc>Created using Figma</desc>
<g id="Canvas" transform="translate(-7835 -307)">
<g id="Shape">
<use xlink:href="#path0_fill" transform="translate(7835.01 307.776)" fill="#D8D9D8"/>
</g>
</g>
<defs>
<path id="path0_fill" fill-rule="evenodd" d="M 29.1119 11.9287L 21.3999 17.478L 24.3459 26.4573C 24.5059 26.9433 24.3299 27.476 23.9133 27.7767C 23.7039 27.9267 23.4586 28.002 23.2133 28.002C 22.9673 28.002 22.7213 27.9267 22.5133 27.7767L 14.8013 22.226L 7.09059 27.7767C 6.67259 28.0767 6.10726 28.0767 5.68926 27.7767C 5.27326 27.4753 5.09792 26.9427 5.25792 26.4567L 8.20259 17.4773L 0.491258 11.9287C 0.0739248 11.6273 -0.101409 11.0953 0.0585914 10.6087C 0.218591 10.1227 0.675925 9.794 1.19192 9.794L 10.7233 9.794L 13.6686 0.814667C 13.8286 0.328667 14.2859 0 14.8026 0C 15.3186 0 15.7746 0.328667 15.9346 0.814667L 18.8799 9.794L 28.4126 9.794C 28.9279 9.794 29.3853 10.1227 29.5453 10.6087C 29.7033 11.0953 29.5286 11.6273 29.1119 11.9287Z"/>
</defs>
</svg>
