<svg width="22" height="17" viewBox="0 0 22 17" version="1.1" xmlns="http://www.w3.org/2000/svg" xmlns:xlink="http://www.w3.org/1999/xlink">
<title>comment</title>
<desc>Created using Figma</desc>
<g id="Canvas" transform="translate(-442 -567)">
<g id="comment">
<g id="Shape">
<use xlink:href="#path0_fill" transform="translate(442 567.583)" fill="#FFFFFF"/>
</g>
</g>
</g>
<defs>
<path id="path0_fill" fill-rule="evenodd" d="M 0 16.17L 0 5.81067C 0 2.60693 2.60693 0 5.81064 0L 15.3596 0C 18.5641 0 21.1717 2.60693 21.1717 5.81067L 21.1717 7.59747C 21.1717 10.8011 18.5648 13.4081 15.3611 13.4081L 5.94534 13.4081L 0 16.17ZM 5.81064 1.29541C 3.32095 1.29541 1.29544 3.32098 1.29544 5.81067L 1.29544 14.1396L 5.65988 12.1119L 15.3611 12.1119C 17.8507 12.1119 19.8763 10.0864 19.8763 7.59674L 19.8763 5.80994C 19.8763 3.32025 17.85 1.29474 15.3596 1.29474L 5.81064 1.29474L 5.81064 1.29541ZM 7.46976 6.94415C 7.46976 6.26361 6.91833 5.71222 6.23782 5.71222C 5.55728 5.71222 5.00589 6.26361 5.00589 6.94415C 5.00589 7.62469 5.55728 8.17609 6.23782 8.17609C 6.91833 8.17609 7.46976 7.62469 7.46976 6.94415ZM 14.9332 5.71222C 15.6137 5.71222 16.1651 6.26361 16.1651 6.94415C 16.1651 7.62469 15.6137 8.17609 14.9332 8.17609C 14.2527 8.17609 13.7013 7.62469 13.7013 6.94415C 13.7013 6.26361 14.2527 5.71222 14.9332 5.71222ZM 11.8167 6.94415C 11.8167 6.26361 11.2653 5.71222 10.5848 5.71222C 9.90427 5.71222 9.35287 6.26361 9.35287 6.94415C 9.35287 7.62469 9.90427 8.17609 10.5848 8.17609C 11.2653 8.17609 11.8167 7.62469 11.8167 6.94415Z"/>
</defs>
</svg>
