<svg width="26" height="18" viewBox="0 0 26 18" version="1.1" xmlns="http://www.w3.org/2000/svg" xmlns:xlink="http://www.w3.org/1999/xlink">
<title>delivery-truck</title>
<desc>Created using Figma</desc>
<g id="Canvas" transform="translate(-9687 149)">
<g id="delivery-truck">
<g id="Shape">
<use xlink:href="#path0_fill" transform="translate(9687 -148.992)" fill="#7B7B7B"/>
</g>
</g>
</g>
<defs>
<path id="path0_fill" fill-rule="evenodd" d="M 21.9736 2.59523L 25.7568 5.78149C 25.8789 5.88358 25.9473 6.0394 25.9531 6.20059L 25.9102 14.3463C 25.9102 14.6418 25.6729 14.8782 25.3818 14.8782L 24.3096 14.8782C 24.0186 14.8782 23.7803 14.6364 23.7803 14.3409C 23.7803 14.0454 24.0186 13.8036 24.3096 13.8036L 24.8584 13.8036L 24.8955 6.44775L 21.4502 3.54626L 17.1904 3.54626L 17.1904 13.8143L 18.2529 13.8143C 18.5439 13.8143 18.7812 14.0561 18.7812 14.3516C 18.7812 14.6472 18.5439 14.889 18.2529 14.889L 11.8008 14.889C 11.5098 14.889 11.2725 14.6472 11.2725 14.3516C 11.2725 14.0561 11.5098 13.8143 11.8008 13.8143L 16.1338 13.8143L 16.1338 1.07463L 3.72559 1.07463L 3.72559 4.47044C 3.72559 4.76598 3.48828 5.00777 3.19727 5.00777C 2.90723 5.00777 2.66895 4.76598 2.66895 4.47044L 2.66895 0.537308C 2.66895 0.241791 2.90723 0 3.19727 0L 16.6572 0C 16.9482 0 17.1855 0.241791 17.1855 0.537308L 17.1855 2.47165L 21.6348 2.47165C 21.7617 2.47165 21.8779 2.51463 21.9736 2.59523ZM 21.4766 4.9594C 21.6084 4.9594 21.7354 5.00775 21.8311 5.09909L 23.4219 6.55522C 23.5322 6.6573 23.5957 6.80238 23.5957 6.95284L 23.5957 9.90268C 23.5957 10.1982 23.3584 10.44 23.0674 10.44L 18.7656 10.44C 18.4756 10.44 18.2373 10.1982 18.2373 9.90268L 18.2373 5.4967C 18.2373 5.20119 18.4756 4.9594 18.7656 4.9594L 21.4766 4.9594ZM 21.2178 13.1534C 20.583 13.1534 19.9814 13.406 19.5264 13.8627C 19.0723 14.3248 18.8184 14.9266 18.8184 15.5713C 18.8184 16.2161 19.0664 16.8179 19.5264 17.28C 19.9863 17.7367 20.583 17.9892 21.2178 17.9892C 22.5176 17.9892 23.5742 16.9039 23.5742 15.5713C 23.5742 14.2388 22.5176 13.1534 21.2178 13.1534ZM 21.2168 16.9146C 20.4883 16.9146 19.875 16.3021 19.875 15.5713C 19.875 14.8406 20.4883 14.2281 21.2168 14.2281C 21.9355 14.2281 22.5176 14.8298 22.5176 15.5713C 22.5176 16.3128 21.9355 16.9146 21.2168 16.9146ZM 22.5391 9.36537L 19.2939 9.36537L 19.2939 6.02866L 21.2705 6.02866L 22.5391 7.18925L 22.5391 9.36537ZM 6.62109 13.8627C 7.07617 13.406 7.67773 13.1534 8.3125 13.1534C 9.6123 13.1534 10.6689 14.2388 10.6689 15.5713C 10.6689 16.9039 9.6123 17.9892 8.3125 17.9892C 7.67773 17.9892 7.08105 17.7367 6.62109 17.28C 6.16113 16.8179 5.91309 16.2161 5.91309 15.5713C 5.91309 14.9266 6.16699 14.3248 6.62109 13.8627ZM 8.3125 16.9146C 7.58398 16.9146 6.9707 16.3021 6.9707 15.5713C 6.9707 14.8406 7.58398 14.2281 8.3125 14.2281C 9.03125 14.2281 9.61328 14.8298 9.61328 15.5713C 9.61328 16.3128 9.03125 16.9146 8.3125 16.9146ZM 3.72559 13.8143L 4.78809 13.8143C 5.0791 13.8143 5.31641 14.0561 5.31641 14.3516C 5.31641 14.6472 5.0791 14.889 4.78809 14.889L 3.19727 14.889C 2.90723 14.889 2.66895 14.6472 2.66895 14.3516L 2.66895 12.3851C 2.66895 12.0896 2.90723 11.8478 3.19727 11.8478C 3.48828 11.8478 3.72559 12.0896 3.72559 12.3851L 3.72559 13.8143ZM 7.4668 10.886C 7.4668 10.5905 7.22949 10.3487 6.93848 10.3487L 0.52832 10.3487C 0.238281 10.3487 0 10.5905 0 10.886C 0 11.1815 0.238281 11.4233 0.52832 11.4233L 6.93848 11.4233C 7.22949 11.4233 7.4668 11.1869 7.4668 10.886ZM 8.01172 8.98389L 1.60156 8.94627C 1.31055 8.94627 1.07324 8.70448 1.07812 8.40358C 1.07812 8.10806 1.31641 7.87164 1.6123 7.87164L 8.02246 7.90926C 8.3125 7.90926 8.55078 8.15105 8.54492 8.45193C 8.54004 8.74747 8.30176 8.98389 8.01172 8.98389ZM 2.67871 6.50687L 9.08887 6.50687C 9.37988 6.50687 9.61719 6.26508 9.61719 5.96954C 9.61719 5.67403 9.37988 5.43224 9.08887 5.43224L 2.67871 5.43224C 2.38867 5.43224 2.15039 5.67403 2.15039 5.96954C 2.15039 6.26508 2.38867 6.50687 2.67871 6.50687Z"/>
</defs>
</svg>
