<svg width="29" height="29" viewBox="0 0 29 29" version="1.1" xmlns="http://www.w3.org/2000/svg" xmlns:xlink="http://www.w3.org/1999/xlink">
<title>loading</title>
<desc>Created using Figma</desc>
<g id="Canvas" transform="translate(-505 -3476)">
<g id="loading">
<g id="Oval">
<use xlink:href="#path0_fill" transform="translate(518.097 3476)" fill="#383A39"/>
</g>
<g id="Oval">
<use xlink:href="#path0_fill" transform="translate(518.097 3502.19)" fill="#ECEEEE"/>
</g>
<g id="Oval">
<use xlink:href="#path0_fill" transform="translate(511.548 3477.73)" fill="#77807F"/>
</g>
<g id="Shape">
<use xlink:href="#path1_fill" transform="translate(524.654 3500.47)" fill="#F2F4F4"/>
</g>
<g id="Shape">
<use xlink:href="#path2_fill" transform="translate(506.739 3482.55)" fill="#9FAAA9"/>
</g>
<g id="Shape">
<use xlink:href="#path3_fill" transform="translate(529.471 3495.65)" fill="#F2F7F7"/>
</g>
<g id="Oval">
<use xlink:href="#path0_fill" transform="translate(505 3489.1)" fill="#B2BBBA"/>
</g>
<g id="Oval">
<use xlink:href="#path0_fill" transform="translate(531.194 3489.1)" fill="#FFFFFF"/>
</g>
<g id="Shape">
<use xlink:href="#path4_fill" transform="translate(506.718 3495.65)" fill="#C5CCCB"/>
</g>
<g id="Shape">
<use xlink:href="#path5_fill" transform="translate(529.471 3482.56)"/>
</g>
<g id="Shape">
<use xlink:href="#path6_fill" transform="translate(511.557 3500.47)" fill="#D9DDDD"/>
</g>
<g id="Shape">
<use xlink:href="#path7_fill" transform="translate(524.654 3477.74)" fill="#111111"/>
</g>
</g>
</g>
<defs>
<path id="path0_fill" d="M 1.40323 2.80645C 2.17821 2.80645 2.80645 2.17821 2.80645 1.40323C 2.80645 0.628246 2.17821 0 1.40323 0C 0.628246 0 0 0.628246 0 1.40323C 0 2.17821 0.628246 2.80645 1.40323 2.80645Z"/>
<path id="path1_fill" d="M 2.61084 0.693099C 2.98503 1.34794 2.75116 2.18987 2.09633 2.61084C 1.44149 2.98503 0.599551 2.75116 0.178583 2.09633C -0.19561 1.44149 0.0382606 0.599551 0.693099 0.178583C 1.34794 -0.19561 2.23665 0.0382606 2.61084 0.693099Z"/>
<path id="path2_fill" d="M 2.09633 0.188866C 2.75116 0.56306 2.98503 1.405 2.61084 2.10661C 2.23665 2.76145 1.39471 2.99532 0.693099 2.62112C 0.0382606 2.24693 -0.19561 1.405 0.178583 0.703382C 0.552777 0.00176954 1.44149 -0.185327 2.09633 0.188866Z"/>
<path id="path3_fill" d="M 2.09633 0.178583C 2.75116 0.552777 2.98503 1.39471 2.61084 2.09633C 2.23665 2.75116 1.39471 2.98503 0.693099 2.61084C 0.0382606 2.23665 -0.19561 1.39471 0.178583 0.693099C 0.552777 0.0382606 1.39471 -0.19561 2.09633 0.178583Z"/>
<path id="path4_fill" d="M 0.713876 0.178583C 1.36871 -0.19561 2.21065 0.0382606 2.63162 0.693099C 3.00581 1.34794 2.77194 2.18987 2.1171 2.61084C 1.46226 2.98503 0.620328 2.75116 0.19936 2.09633C -0.221608 1.44149 0.0590374 0.599551 0.713876 0.178583Z"/>
<path id="path5_fill" d="M 0.693099 0.178583C 1.34794 -0.19561 2.18987 0.0382606 2.61084 0.693099C 2.98503 1.34794 2.75116 2.18987 2.09633 2.61084C 1.44149 2.98503 0.599551 2.75116 0.178583 2.09633C -0.19561 1.44149 0.0382606 0.552777 0.693099 0.178583Z"/>
<path id="path6_fill" d="M 0.178583 0.693099C 0.552777 0.0382606 1.39471 -0.19561 2.09633 0.178583C 2.75116 0.552777 2.98503 1.39471 2.61084 2.09633C 2.23665 2.75116 1.39471 2.98503 0.693099 2.61084C 0.0382606 2.18987 -0.19561 1.34794 0.178583 0.693099Z"/>
<path id="path7_fill" d="M 0.178583 0.693099C 0.552777 0.0382606 1.39471 -0.19561 2.09633 0.178583C 2.75116 0.552777 2.98503 1.39471 2.61084 2.09633C 2.23665 2.75116 1.39471 2.98503 0.693099 2.61084C 0.0382606 2.23665 -0.19561 1.39471 0.178583 0.693099Z"/>
</defs>
</svg>
