<svg xmlns="http://www.w3.org/2000/svg" xmlns:xlink="http://www.w3.org/1999/xlink" width="13" height="16" viewBox="0 0 13 16"><defs><path id="gnora" d="M21.42 25.32H9.97a.4.4 0 0 1-.4-.39v-2.15a6.01 6.01 0 0 1 4.23-5.7 3.78 3.78 0 0 1-1.98-3.3A3.83 3.83 0 0 1 15.7 10c2.13 0 3.86 1.7 3.86 3.78 0 1.42-.8 2.66-1.97 3.3a6.02 6.02 0 0 1 4.23 5.7v2.15a.4.4 0 0 1-.4.4zm-5.73-8.53c1.69 0 3.07-1.35 3.07-3 0-1.66-1.38-3.01-3.07-3.01a3.04 3.04 0 0 0-3.08 3c0 1.66 1.38 3.01 3.08 3.01zM21 22.78a5.28 5.28 0 0 0-5.32-5.22 5.28 5.28 0 0 0-5.33 5.22v1.76H21z"/></defs><g><g transform="translate(-9 -10)"><use xlink:href="#gnora"/></g></g></svg>