<svg width="20" height="18" viewBox="0 0 20 18" version="1.1" xmlns="http://www.w3.org/2000/svg" xmlns:xlink="http://www.w3.org/1999/xlink">
<title>coin-stack</title>
<desc>Created using Figma</desc>
<g id="Canvas" transform="translate(-6360 -1638)">
<g id="coin-stack">
<g id="Shape">
<use xlink:href="#path0_fill" transform="translate(6360 1642.53)" fill="#FFFFFF"/>
</g>
<g id="Shape">
<use xlink:href="#path1_fill" transform="translate(6360 1647.61)" fill="#FFFFFF"/>
</g>
<g id="Shape">
<use xlink:href="#path2_fill" transform="translate(6360 1650.58)" fill="#FFFFFF"/>
</g>
<g id="Shape">
<use xlink:href="#path3_fill" transform="translate(6368.37 1638.02)" fill="#FFFFFF"/>
</g>
<g id="Shape">
<use xlink:href="#path4_fill" transform="translate(6368.37 1643.11)" fill="#FFFFFF"/>
</g>
<g id="Shape">
<use xlink:href="#path5_fill" transform="translate(6368.37 1646.08)" fill="#FFFFFF"/>
</g>
<g id="Shape">
<use xlink:href="#path6_fill" transform="translate(6368.37 1649.21)" fill="#FFFFFF"/>
</g>
<g id="Shape">
<use xlink:href="#path7_fill" transform="translate(6368.37 1652.18)" fill="#FFFFFF"/>
</g>
</g>
</g>
<defs>
<path id="path0_fill" d="M 5.80503 5.89877C 6.36652 5.89877 6.90925 5.86212 7.42284 5.79389L 7.42284 0.104832C 6.9093 0.0366536 6.36652 0 5.80503 0C 2.59901 0 0 1.19127 0 2.66083L 0 3.23789C 4.69454e-16 4.7074 2.59901 5.89877 5.80503 5.89877Z"/>
<path id="path1_fill" d="M 5.80503 3.78287C 6.36652 3.78287 6.90925 3.74621 7.42284 3.67808L 7.42284 2.01052C 6.90915 2.0787 6.36667 2.11585 5.80503 2.11585C 3.00652 2.11585 0.670746 1.20811 0.12209 0C 0.0421891 0.175978 0 0.35819 0 0.544978L 0 1.12203C 8.00864e-16 2.5916 2.59901 3.78287 5.80503 3.78287Z"/>
<path id="path2_fill" d="M 7.42284 2.14014L 7.42284 2.01052C 6.90915 2.0787 6.36667 2.11585 5.80503 2.11585C 3.00652 2.11585 0.670746 1.20811 0.12209 0C 0.0421891 0.175927 0 0.35814 0 0.544927L 0 1.12198C 0 2.5916 2.59901 3.78287 5.80503 3.78287C 6.44617 3.78287 7.06284 3.7351 7.6395 3.64711C 7.49657 3.35162 7.42284 3.03999 7.42284 2.71715L 7.42284 2.14014Z"/>
<path id="path3_fill" d="M 5.80503 0C 2.59901 0 0 1.19127 0 2.66083L 0 3.23789C 0 4.70745 2.59901 5.89872 5.80503 5.89872C 9.01099 5.89872 11.6101 4.70745 11.6101 3.23789L 11.6101 2.66083C 11.6101 1.19127 9.01099 0 5.80503 0Z"/>
<path id="path4_fill" d="M 5.80503 2.11585C 3.00652 2.11585 0.670746 1.20816 0.12209 0C 0.0421891 0.175927 0 0.35814 0 0.544978L 0 1.12203C 0 2.5916 2.59901 3.78287 5.80503 3.78287C 9.01099 3.78287 11.6101 2.5916 11.6101 1.12203L 11.6101 0.544978C 11.6101 0.35814 11.5679 0.175927 11.488 0C 10.9393 1.20816 8.60353 2.11585 5.80503 2.11585Z"/>
<path id="path5_fill" d="M 5.80503 2.11585C 3.00652 2.11585 0.670746 1.20811 0.12209 1.42902e-15C 0.0421891 0.175927 0 0.35814 0 0.544978L 0 1.12203C 0 2.59165 2.59901 3.78292 5.80503 3.78292C 9.01099 3.78292 11.6101 2.59165 11.6101 1.12203L 11.6101 0.544978C 11.6101 0.35814 11.5679 0.175927 11.488 0C 10.9393 1.20816 8.60353 2.11585 5.80503 2.11585Z"/>
<path id="path6_fill" d="M 5.80503 2.11585C 3.00652 2.11585 0.670746 1.20811 0.12209 1.42902e-15C 0.0421891 0.175978 0 0.35814 0 0.544927L 0 1.12203C 0 2.5916 2.59901 3.78287 5.80503 3.78287C 9.01099 3.78287 11.6101 2.5916 11.6101 1.12203L 11.6101 0.544927C 11.6101 0.35814 11.5679 0.175877 11.488 0C 10.9393 1.20806 8.60353 2.11585 5.80503 2.11585Z"/>
<path id="path7_fill" d="M 5.80503 2.11585C 3.00652 2.11585 0.670746 1.20816 0.12209 5.02793e-05C 0.0421891 0.176028 0 0.35829 0 0.544978L 0 1.12203C 0 2.5916 2.59901 3.78287 5.80503 3.78287C 9.01099 3.78287 11.6101 2.5916 11.6101 1.12203L 11.6101 0.544927C 11.6101 0.35814 11.5679 0.175877 11.488 0C 10.9393 1.20811 8.60353 2.11585 5.80503 2.11585Z"/>
</defs>
</svg>
