<svg width="79" height="24" viewBox="0 0 79 24" version="1.1" xmlns="http://www.w3.org/2000/svg" xmlns:xlink="http://www.w3.org/1999/xlink">
<title>free</title>
<desc>Created using Figma</desc>
<g id="Canvas" transform="translate(-6313 -1322)">
<g id="free">
<g id="Combined Shape">
<use xlink:href="#path0_fill" transform="translate(6313.89 1322)" fill="url(#paint0_linear)"/>
</g>
<g id="&#208;&#177;&#208;&#181;&#209;&#129;&#208;&#191;&#208;&#187;&#208;&#176;&#209;&#130;&#208;&#189;&#208;&#190;">
<use xlink:href="#path1_fill" transform="translate(6326 1329)" fill="#FFFFFF"/>
</g>
</g>
</g>
<defs>
<linearGradient id="paint0_linear" x1="0" y1="0" x2="1" y2="0" gradientUnits="userSpaceOnUse" gradientTransform="matrix(0 19.8473 -64.5946 0 39.055 4.15275)">
<stop offset="0" stop-color="#FF8E4C"/>
<stop offset="1" stop-color="#FF6633"/>
</linearGradient>
<path id="path0_fill" fill-rule="evenodd" d="M 7.84978 4.97522C 4.38689 3.5127 4.22234 0 4.22234 0C 4.22234 0 1.39715 3.18689 0.285332 8.91992C -0.826485 14.6528 1.48406 18.9448 4.22234 21.8008C 6.61932 24.301 13.403 24.0422 15.0563 23.939C 15.402 23.9792 15.7536 24 16.11 24L 69.11 24C 74.0807 24 78.11 19.9706 78.11 15C 78.11 10.0294 74.0807 6 69.11 6L 16.11 6C 15.8815 6 15.6554 6.00854 15.4313 6.02527C 14.9836 5.95947 14.4084 5.94873 13.7453 5.9364C 12.1174 5.90613 9.95867 5.86584 7.84978 4.97522Z"/>
<path id="path1_fill" d="M 5.07031 1.94336L 6.09619 1.94336C 6.06396 2.39811 5.94401 2.74365 5.73633 2.97998C 5.53223 3.21273 5.02555 3.3291 4.21631 3.3291C 4.11963 3.3291 4.02295 3.32731 3.92627 3.32373L 3.73291 3.32373C 3.25309 3.32373 2.86279 3.37744 2.56201 3.48486C 2.26123 3.5887 2.01416 3.79281 1.8208 4.09717C 1.63102 4.40153 1.53255 4.89209 1.52539 5.56885C 1.7474 5.1499 2.03385 4.83659 2.38477 4.62891C 2.73926 4.42122 3.15999 4.31738 3.64697 4.31738C 4.39534 4.31738 5.02913 4.60921 5.54834 5.19287C 6.06755 5.77295 6.32715 6.44613 6.32715 7.2124C 6.32715 8.0109 6.05322 8.69661 5.50537 9.26953C 4.9611 9.84245 4.24854 10.1289 3.36768 10.1289C 2.76253 10.1289 2.23079 9.98389 1.77246 9.69385C 1.31413 9.40381 0.986491 9.00814 0.789551 8.50684C 0.592611 8.00195 0.494141 7.16764 0.494141 6.00391C 0.494141 4.63607 0.744792 3.65316 1.24609 3.05518C 1.75098 2.45719 2.63005 2.1582 3.8833 2.1582L 4.646 2.1582C 4.85726 2.1582 4.9987 2.08659 5.07031 1.94336ZM 2.03027 7.19092C 2.03027 7.71012 2.15918 8.12191 2.41699 8.42627C 2.67839 8.72705 2.99707 8.87744 3.37305 8.87744C 3.77767 8.87744 4.10889 8.72168 4.3667 8.41016C 4.62809 8.09505 4.75879 7.69043 4.75879 7.19629C 4.75879 6.69141 4.6263 6.28499 4.36133 5.97705C 4.09993 5.66553 3.77588 5.50977 3.38916 5.50977C 3.01318 5.50977 2.69271 5.66195 2.42773 5.96631C 2.16276 6.27067 2.03027 6.67887 2.03027 7.19092ZM 10.8926 8.18457L 12.3965 8.43701C 12.2031 8.98844 11.897 9.40918 11.478 9.69922C 11.0627 9.98568 10.5417 10.1289 9.91504 10.1289C 8.92318 10.1289 8.18913 9.80485 7.71289 9.15674C 7.33691 8.63753 7.14893 7.98226 7.14893 7.19092C 7.14893 6.24561 7.396 5.50618 7.89014 4.97266C 8.38428 4.43555 9.00911 4.16699 9.76465 4.16699C 10.6133 4.16699 11.2829 4.44808 11.7734 5.01025C 12.264 5.56885 12.4985 6.42643 12.4771 7.58301L 8.6958 7.58301C 8.70654 8.0306 8.82829 8.37972 9.06104 8.63037C 9.29378 8.87744 9.58382 9.00098 9.93115 9.00098C 10.1675 9.00098 10.3662 8.93652 10.5273 8.80762C 10.6885 8.67871 10.8102 8.47103 10.8926 8.18457ZM 10.9785 6.65918C 10.9678 6.22233 10.855 5.89111 10.6401 5.66553C 10.4253 5.43636 10.1639 5.32178 9.85596 5.32178C 9.52653 5.32178 9.25439 5.44173 9.03955 5.68164C 8.82471 5.92155 8.71908 6.2474 8.72266 6.65918L 10.9785 6.65918ZM 18.5356 5.98242L 17.0479 6.25098C 16.9977 5.95378 16.8831 5.72998 16.7041 5.57959C 16.5286 5.4292 16.2995 5.354 16.0166 5.354C 15.6406 5.354 15.3398 5.4847 15.1143 5.74609C 14.8923 6.00391 14.7812 6.43717 14.7812 7.0459C 14.7812 7.72266 14.894 8.20068 15.1196 8.47998C 15.3488 8.75928 15.6549 8.89893 16.0381 8.89893C 16.3245 8.89893 16.5591 8.81836 16.7417 8.65723C 16.9243 8.49251 17.0532 8.21143 17.1284 7.81396L 18.6108 8.06641C 18.4569 8.74674 18.1615 9.26058 17.7246 9.60791C 17.2878 9.95524 16.7023 10.1289 15.9683 10.1289C 15.134 10.1289 14.4679 9.86572 13.9702 9.33936C 13.4761 8.81299 13.229 8.08431 13.229 7.15332C 13.229 6.21159 13.4779 5.47933 13.9756 4.95654C 14.4733 4.43018 15.1465 4.16699 15.9951 4.16699C 16.6898 4.16699 17.2412 4.31738 17.6494 4.61816C 18.0612 4.91536 18.3566 5.37012 18.5356 5.98242ZM 19.626 4.2959L 24.6909 4.2959L 24.6909 10L 23.1816 10L 23.1816 5.51514L 21.1353 5.51514L 21.1353 10L 19.626 10L 19.626 4.2959ZM 26.7427 4.2959L 31.7969 4.2959L 31.7969 10L 30.293 10L 30.293 5.52051L 28.2358 5.52051L 28.2358 8.08252C 28.2358 8.73421 28.1606 9.19255 28.0103 9.45752C 27.8599 9.71891 27.6934 9.89079 27.5107 9.97314C 27.3281 10.0555 27.0345 10.0967 26.6299 10.0967C 26.39 10.0967 26.0731 10.0645 25.6792 10L 25.6792 8.88818C 25.7114 8.88818 25.7956 8.89176 25.9316 8.89893C 26.0892 8.90967 26.2109 8.91504 26.2969 8.91504C 26.501 8.91504 26.6263 8.8488 26.6729 8.71631C 26.7194 8.58024 26.7427 8.20605 26.7427 7.59375L 26.7427 4.2959ZM 34.4556 6.03613L 33.0859 5.78906C 33.2399 5.23763 33.5049 4.82943 33.8809 4.56445C 34.2568 4.29948 34.8154 4.16699 35.5566 4.16699C 36.2298 4.16699 36.7311 4.24756 37.0605 4.40869C 37.39 4.56624 37.6209 4.76855 37.7534 5.01562C 37.8895 5.25911 37.9575 5.7085 37.9575 6.36377L 37.9414 8.12549C 37.9414 8.62679 37.9647 8.9974 38.0112 9.2373C 38.0614 9.47363 38.1527 9.72786 38.2852 10L 36.792 10C 36.7526 9.89974 36.7043 9.75114 36.647 9.5542C 36.6219 9.46468 36.604 9.4056 36.5933 9.37695C 36.3354 9.6276 36.0597 9.81559 35.7661 9.94092C 35.4725 10.0662 35.1592 10.1289 34.8262 10.1289C 34.2389 10.1289 33.7752 9.96956 33.4351 9.65088C 33.0985 9.33219 32.9302 8.92936 32.9302 8.44238C 32.9302 8.12012 33.0072 7.83366 33.1611 7.58301C 33.3151 7.32878 33.5299 7.13542 33.8057 7.00293C 34.085 6.86686 34.486 6.7487 35.0088 6.64844C 35.7142 6.51595 36.203 6.39242 36.4751 6.27783L 36.4751 6.12744C 36.4751 5.8374 36.4035 5.63151 36.2603 5.50977C 36.117 5.38444 35.8467 5.32178 35.4492 5.32178C 35.1807 5.32178 34.9712 5.37549 34.8208 5.48291C 34.6704 5.58675 34.5487 5.77116 34.4556 6.03613ZM 36.4751 7.26074C 36.2817 7.3252 35.9756 7.40218 35.5566 7.4917C 35.1377 7.58122 34.8638 7.66895 34.7349 7.75488C 34.5379 7.89453 34.4395 8.07178 34.4395 8.28662C 34.4395 8.49788 34.5182 8.6805 34.6758 8.83447C 34.8333 8.98844 35.0339 9.06543 35.2773 9.06543C 35.5495 9.06543 35.8091 8.97591 36.0562 8.79688C 36.2388 8.66081 36.3587 8.4943 36.416 8.29736C 36.4554 8.16846 36.4751 7.92318 36.4751 7.56152L 36.4751 7.26074ZM 38.7739 4.2959L 43.9355 4.2959L 43.9355 5.51514L 42.1094 5.51514L 42.1094 10L 40.6001 10L 40.6001 5.51514L 38.7739 5.51514L 38.7739 4.2959ZM 44.7842 4.2959L 46.2935 4.2959L 46.2935 6.38525L 48.4526 6.38525L 48.4526 4.2959L 49.9673 4.2959L 49.9673 10L 48.4526 10L 48.4526 7.60449L 46.2935 7.60449L 46.2935 10L 44.7842 10L 44.7842 4.2959ZM 51.1436 7.06738C 51.1436 6.56608 51.2671 6.08089 51.5142 5.61182C 51.7612 5.14274 52.1104 4.78467 52.5615 4.5376C 53.0163 4.29053 53.5229 4.16699 54.0815 4.16699C 54.9445 4.16699 55.6517 4.44808 56.2031 5.01025C 56.7546 5.56885 57.0303 6.27604 57.0303 7.13184C 57.0303 7.99479 56.751 8.71094 56.1924 9.28027C 55.6374 9.84603 54.9373 10.1289 54.0923 10.1289C 53.5695 10.1289 53.07 10.0107 52.5938 9.77441C 52.1211 9.53809 51.7612 9.19255 51.5142 8.73779C 51.2671 8.27946 51.1436 7.72266 51.1436 7.06738ZM 52.6904 7.14795C 52.6904 7.7137 52.8247 8.14697 53.0933 8.44775C 53.3618 8.74854 53.693 8.89893 54.0869 8.89893C 54.4808 8.89893 54.8102 8.74854 55.0752 8.44775C 55.3438 8.14697 55.478 7.71012 55.478 7.13721C 55.478 6.57861 55.3438 6.14893 55.0752 5.84814C 54.8102 5.54736 54.4808 5.39697 54.0869 5.39697C 53.693 5.39697 53.3618 5.54736 53.0933 5.84814C 52.8247 6.14893 52.6904 6.58219 52.6904 7.14795Z"/>
</defs>
</svg>
