<svg width="15" height="15" viewBox="0 0 15 15" version="1.1" xmlns="http://www.w3.org/2000/svg" xmlns:xlink="http://www.w3.org/1999/xlink">
<title>Rectangle</title>
<desc>Created using Figma</desc>
<g id="Canvas" transform="translate(-6022 -2630)">
<rect x="6022" y="2630" width="15" height="15" fill="#FFFFFF"/>
<clipPath id="clip-0" clip-rule="evenodd">
<path d="M 5928 2001L 6248 2001L 6248 2668L 5928 2668L 5928 2001Z" fill="#FFFFFF"/>
</clipPath>
<g id="ordering-pay" clip-path="url(#clip-0)">
<g id="bg">
<use xlink:href="#path0_fill" transform="translate(5928 2006)" fill="#FFFFFF"/>
</g>
<g id="btn-buy-ordering">
<g id="fast-buy">
<g id="Rectangle 22">
<use xlink:href="#path1_fill" transform="translate(5928 2620)" fill="#ECECEC"/>
</g>
<g id="Shape">
<use xlink:href="#path2_fill" transform="translate(6011 2635)" fill="#7B7B7B"/>
</g>
<g id="Rectangle">
<use xlink:href="#path3_fill" transform="translate(6022 2630)" fill="#FFFFFF"/>
</g>
<g id="Shape">
<use xlink:href="#path4_fill" transform="translate(6025 2634)" fill="#7B7B7B"/>
</g>
</g>
</g>
</g>
</g>
<defs>
<path id="path0_fill" fill-rule="evenodd" d="M 0 0L 320 0L 320 662L 0 662L 0 0Z"/>
<path id="path1_fill" fill-rule="evenodd" d="M 0 0L 320 0L 320 48L 0 48L 0 0Z"/>
<path id="path2_fill" fill-rule="evenodd" d="M 18.441 3.26152C 18.3346 3.11257 18.1636 3.02032 17.9782 3.01267L 6.47276 2.52667C 6.14297 2.51272 5.86702 2.76247 5.85254 3.08422C 5.83852 3.40597 6.09321 3.67777 6.42164 3.69172L 17.148 4.14442L 15.039 10.5911L 5.6535 10.5911L 3.95797 1.54657C 3.92088 1.34812 3.782 1.18252 3.59019 1.10917L 0.813021 0.0404205C 0.506759 -0.0770295 0.161592 0.0701205 0.041259 0.36982C -0.078622 0.66907 0.0715685 1.00792 0.377378 1.12537L 2.84693 2.07577L 4.57231 11.2796C 4.62433 11.5564 4.87043 11.7571 5.15769 11.7571L 5.44404 11.7571L 4.79035 13.5359C 4.73562 13.6849 4.75823 13.8505 4.85143 13.9801C 4.94462 14.1092 5.09571 14.1862 5.25721 14.1862L 5.71547 14.1862C 5.43138 14.4958 5.25721 14.9039 5.25721 15.3521C 5.25721 16.3169 6.05793 17.1013 7.04231 17.1013C 8.02669 17.1013 8.82785 16.3169 8.82785 15.3521C 8.82785 14.9039 8.65323 14.4958 8.36914 14.1862L 12.2614 14.1862C 11.9778 14.4958 11.8032 14.9039 11.8032 15.3521C 11.8032 16.3169 12.6039 17.1013 13.5887 17.1013C 14.5731 17.1013 15.3738 16.3169 15.3738 15.3521C 15.3738 14.9039 15.1996 14.4958 14.9155 14.1862L 15.4729 14.1862C 15.747 14.1862 15.9691 13.9688 15.9691 13.7002C 15.9691 13.432 15.747 13.2146 15.4729 13.2146L 5.96247 13.2146L 6.49809 11.7571L 15.4729 11.7571C 15.7316 11.7571 15.961 11.5933 16.0393 11.3521L 18.5192 3.77272C 18.5762 3.59992 18.5468 3.41092 18.441 3.26152ZM 7.0425 16.1297C 6.60505 16.1297 6.24902 15.781 6.24902 15.3526C 6.24902 14.9237 6.60505 14.575 7.0425 14.575C 7.4804 14.575 7.83598 14.9237 7.83598 15.3526C 7.83598 15.781 7.4804 16.1297 7.0425 16.1297ZM 13.5889 16.1297C 13.151 16.1297 12.7954 15.781 12.7954 15.3526C 12.7954 14.9237 13.151 14.575 13.5889 14.575C 14.0263 14.575 14.3824 14.9237 14.3824 15.3526C 14.3824 15.781 14.0263 16.1297 13.5889 16.1297Z"/>
<path id="path3_fill" fill-rule="evenodd" d="M 0 7.5C 0 3.35786 3.35786 0 7.5 0C 11.6421 0 15 3.35786 15 7.5C 15 11.6421 11.6421 15 7.5 15C 3.35786 15 0 11.6421 0 7.5Z"/>
<path id="path4_fill" d="M 2.86045 5.42L 0.715114 3.27245L 0 3.9883L 2.86045 6.8517L 8.99 0.715849L 8.27489 0L 2.86045 5.42Z"/>
</defs>
</svg>
