<svg width="26" height="18" viewBox="0 0 26 18" version="1.1" xmlns="http://www.w3.org/2000/svg" xmlns:xlink="http://www.w3.org/1999/xlink">
<title>Shape</title>
<desc>Created using Figma</desc>
<g id="Canvas" transform="translate(-5971 -820)">
<g id="Shape">
<use xlink:href="#path0_fill" transform="translate(5971 820.008)" fill="#FFFFFF"/>
</g>
</g>
<defs>
<path id="path0_fill" fill-rule="evenodd" d="M 21.9731 2.59521L 25.7568 5.78149C 25.8784 5.88361 25.9468 6.03943 25.9521 6.20062L 25.9102 14.3463C 25.9102 14.6418 25.6719 14.8782 25.3813 14.8782L 24.3086 14.8782C 24.0181 14.8782 23.7803 14.6364 23.7803 14.3409C 23.7803 14.0453 24.0181 13.8036 24.3086 13.8036L 24.8584 13.8036L 24.8955 6.44775L 21.4497 3.54626L 17.1904 3.54626L 17.1904 13.8143L 18.2524 13.8143C 18.5435 13.8143 18.7812 14.0561 18.7812 14.3516C 18.7812 14.6472 18.5435 14.889 18.2524 14.889L 11.8003 14.889C 11.5093 14.889 11.2715 14.6472 11.2715 14.3516C 11.2715 14.0561 11.5093 13.8143 11.8003 13.8143L 16.1333 13.8143L 16.1333 1.07465L 3.72559 1.07465L 3.72559 4.47046C 3.72559 4.76599 3.48779 5.00775 3.19678 5.00775C 2.90625 5.00775 2.66846 4.76599 2.66846 4.47046L 2.66846 0.537292C 2.66846 0.241821 2.90625 0 3.19678 0L 16.6567 0C 16.9473 0 17.1851 0.241821 17.1851 0.537292L 17.1851 2.47162L 21.6348 2.47162C 21.7617 2.47162 21.8779 2.51465 21.9731 2.59521ZM 21.4761 4.95941C 21.6084 4.95941 21.7354 5.00775 21.8301 5.09912L 23.4209 6.55524C 23.5317 6.65735 23.5952 6.80237 23.5952 6.95282L 23.5952 9.90271C 23.5952 10.1982 23.3574 10.44 23.0669 10.44L 18.7651 10.44C 18.4746 10.44 18.2368 10.1982 18.2368 9.90271L 18.2368 5.4967C 18.2368 5.20123 18.4746 4.95941 18.7651 4.95941L 21.4761 4.95941ZM 21.2178 13.1534C 20.5835 13.1534 19.981 13.406 19.5264 13.8627C 19.0718 14.3248 18.8184 14.9266 18.8184 15.5714C 18.8184 16.2161 19.0669 16.8179 19.5264 17.28C 19.9863 17.7368 20.5835 17.9893 21.2178 17.9893C 22.5176 17.9893 23.5742 16.9039 23.5742 15.5714C 23.5742 14.2388 22.5176 13.1534 21.2178 13.1534ZM 21.2173 16.9147C 20.4878 16.9147 19.875 16.3021 19.875 15.5714C 19.875 14.8406 20.4878 14.2281 21.2173 14.2281C 21.936 14.2281 22.5171 14.8299 22.5171 15.5714C 22.5171 16.3129 21.936 16.9147 21.2173 16.9147ZM 22.5386 9.36542L 19.2939 9.36542L 19.2939 6.02869L 21.2705 6.02869L 22.5386 7.18927L 22.5386 9.36542ZM 6.62158 13.8627C 7.07617 13.406 7.67871 13.1534 8.31299 13.1534C 9.61279 13.1534 10.6694 14.2388 10.6694 15.5714C 10.6694 16.9039 9.61279 17.9893 8.31299 17.9893C 7.67871 17.9893 7.08154 17.7368 6.62158 17.28C 6.16211 16.8179 5.91357 16.2161 5.91357 15.5714C 5.91357 14.9266 6.16699 14.3248 6.62158 13.8627ZM 8.3125 16.9147C 7.58301 16.9147 6.97021 16.3021 6.97021 15.5714C 6.97021 14.8406 7.58301 14.2281 8.3125 14.2281C 9.03125 14.2281 9.6123 14.8299 9.6123 15.5714C 9.6123 16.3129 9.03125 16.9147 8.3125 16.9147ZM 3.72559 13.8143L 4.7876 13.8143C 5.07812 13.8143 5.31592 14.0562 5.31592 14.3517C 5.31592 14.6472 5.07812 14.889 4.7876 14.889L 3.19678 14.889C 2.90625 14.889 2.66846 14.6472 2.66846 14.3517L 2.66846 12.3851C 2.66846 12.0896 2.90625 11.8478 3.19678 11.8478C 3.48779 11.8478 3.72559 12.0896 3.72559 12.3851L 3.72559 13.8143ZM 7.46729 10.8859C 7.46729 10.5905 7.22949 10.3486 6.93848 10.3486L 0.52832 10.3486C 0.237793 10.3486 0 10.5905 0 10.8859C 0 11.1815 0.237793 11.4233 0.52832 11.4233L 6.93848 11.4233C 7.22949 11.4233 7.46729 11.1868 7.46729 10.8859ZM 8.01172 8.98389L 1.60156 8.94629C 1.31055 8.94629 1.07275 8.70447 1.07812 8.40356C 1.07812 8.10803 1.31592 7.87164 1.60645 7.87164L 1.61182 7.87164L 8.02197 7.90924C 8.31299 7.90924 8.55078 8.15106 8.54541 8.45197C 8.54004 8.74744 8.30225 8.98389 8.01172 8.98389ZM 2.6792 6.5069L 9.08936 6.5069C 9.38037 6.5069 9.61816 6.26508 9.61816 5.96954C 9.61816 5.67407 9.38037 5.43225 9.08936 5.43225L 2.6792 5.43225C 2.38867 5.43225 2.15088 5.67407 2.15088 5.96954C 2.15088 6.26508 2.38867 6.5069 2.6792 6.5069Z"/>
</defs>
</svg>
