<svg width="20" height="20" viewBox="0 0 20 20" version="1.1" xmlns="http://www.w3.org/2000/svg" xmlns:xlink="http://www.w3.org/1999/xlink">
<title>Shape</title>
<desc>Created using Figma</desc>
<g id="Canvas" transform="translate(-6884 -403)">
<g id="Shape">
<use xlink:href="#path0_fill" transform="translate(6884 403)" fill="#FF7848"/>
</g>
</g>
<defs>
<path id="path0_fill" fill-rule="evenodd" d="M 17.75 17.5C 18.5 16.875 20 15.5 20 13.5C 20 11.75 18.5 10.25 16.5 9.375C 17.125 8.625 17.5 7.5 17.5 6.375C 17.5 2.875 13.875 0 9.25 0C 4.875 0 0 2.625 0 6.375C 0 9 2 10.875 2.875 11.625C 2.75 13.125 2.125 13.75 2.125 13.75L 0.625 15L 2.5 15C 4 15 5.25 14.625 6.25 14.125C 6.625 16.5 9.375 18.375 12.875 18.375L 13.5 18.375C 14.25 19 15.75 20 17.875 20L 19.625 20L 18.25 18.875C 18.25 18.875 17.875 18.5 17.75 17.5ZM 12.875 17.125C 10 17.125 7.5 15.5 7.5 13.625L 7.5 13.375C 7.58691 13.2878 7.6748 13.2157 7.75635 13.1483L 7.76025 13.1453C 7.91162 13.0208 8.04443 12.9114 8.125 12.75L 9 12.75C 11.625 12.75 14 11.875 15.5 10.375C 17.375 11 18.75 12.25 18.75 13.5C 18.75 14.75 17.625 16 16.625 16.625L 16.25 16.875L 16.25 17.25C 16.25 17.7122 16.3867 18.0378 16.5083 18.3276C 16.5513 18.4297 16.5923 18.5273 16.625 18.625C 15.375 18.375 14.5 17.75 14.25 17.375L 14.125 17.125L 13.875 17.125L 12.875 17.125ZM 16.25 6.375C 16.25 3.625 13.125 1.25 9.25 1.25C 5.125 1.25 1.125 3.75 1.125 6.5C 1.125 8.25 2.5 10 3.75 11L 3.75 11.375C 3.75 12.375 3.75 13.125 3.625 13.625C 5.625 13.25 7.125 12.25 7.5 11.75L 7.625 11.5L 8 11.5L 9 11.5C 13 11.5 16.25 9.125 16.25 6.375Z"/>
</defs>
</svg>
