<svg width="49" height="40" viewBox="0 0 49 40" version="1.1" xmlns="http://www.w3.org/2000/svg" xmlns:xlink="http://www.w3.org/1999/xlink">
<title>right-quotation-sign</title>
<desc>Created using Figma</desc>
<g id="Canvas" transform="translate(-5958 -1346)">
<g id="right-quotation-sign">
<g id="Shape">
<use xlink:href="#path0_fill" transform="matrix(1 0 0 -1 5983.68 1385.99)" fill="#DAD2AF"/>
</g>
<g id="Shape">
<use xlink:href="#path1_fill" transform="matrix(1 0 0 -1 5958 1385.99)" fill="#DAD2AF"/>
</g>
</g>
</g>
<defs>
<path id="path0_fill" d="M 22.2114 16.0359C 19.6134 6.74468 13.2043 0 6.97433 0C 6.47394 0 5.97404 0.0435556 5.48701 0.129677C 5.21083 0.178182 4.96929 0.340525 4.81982 0.576121C 4.67084 0.813202 4.62877 1.10126 4.70449 1.37052L 5.98691 5.95771C 6.11065 6.40069 6.53779 6.70013 6.98176 6.67984L 7.08372 6.67786C 9.39414 6.67786 13.6166 10.1405 15.7691 17.8365C 15.8542 18.1419 15.9349 18.4542 16.0126 18.7799C 13.5963 17.5841 10.7137 17.3074 8.10331 18.0345C 2.2144 19.6822 -1.23539 25.8126 0.410808 31.7005C 1.74519 36.4713 6.13391 39.8043 11.0834 39.8043C 12.0916 39.8043 13.0983 39.6653 14.0759 39.3915C 17.9592 38.3061 20.8789 35.082 22.2975 30.3152C 23.5779 26.0145 23.5457 20.8102 22.2114 16.0359Z"/>
<path id="path1_fill" d="M 6.9727 0C 6.4733 0 5.97291 0.0425657 5.48637 0.128687C 5.21068 0.176202 4.96865 0.339535 4.81967 0.575131C 4.67069 0.812212 4.62862 1.10027 4.70386 1.36953L 5.98677 5.95672C 6.1105 6.3997 6.52973 6.69914 6.98161 6.67885L 7.08258 6.67687C 9.39301 6.67687 13.6159 10.1395 15.7685 17.8355C 15.8541 18.1429 15.9348 18.4552 16.012 18.7789C 13.5946 17.5831 10.713 17.3064 8.10267 18.0335C 2.21476 19.6812 -1.23603 25.8116 0.41116 31.6995C 1.74554 36.4704 6.13426 39.8033 11.0838 39.8033C 12.092 39.8033 13.0987 39.6643 14.0767 39.3906C 17.9596 38.3051 20.8793 35.081 22.2983 30.3142C 23.5783 26.0136 23.5466 20.8087 22.2117 16.0339C 19.6122 6.74369 13.2041 0 6.9727 0Z"/>
</defs>
</svg>
