<svg width="22" height="22" viewBox="0 0 22 22" version="1.1" xmlns="http://www.w3.org/2000/svg" xmlns:xlink="http://www.w3.org/1999/xlink">
<title>at-sign</title>
<desc>Created using Figma</desc>
<g id="Canvas" transform="translate(-5520 -994)">
<g id="at-sign">
<g id="Shape">
<use xlink:href="#path0_fill" transform="translate(5520 994.012)" fill="#FF7848"/>
</g>
</g>
</g>
<defs>
<path id="path0_fill" fill-rule="evenodd" d="M 16.2246 5.47247L 14.5439 5.47247L 13.8008 6.24109C 13.4805 5.96881 13.1289 5.74878 12.7446 5.58044C 12.3608 5.41254 11.8882 5.32892 11.3286 5.32892C 10.5132 5.32892 9.74121 5.54895 9.01318 5.98859C 8.28467 6.4292 7.64453 7.00879 7.09277 7.7287C 6.54102 8.44867 6.10449 9.27618 5.78467 10.2126C 5.46484 11.1486 5.30518 12.113 5.30518 13.1047C 5.30518 13.6326 5.38086 14.1127 5.5332 14.5447C 5.68506 14.9772 5.88867 15.3453 6.14551 15.649C 6.40088 15.9527 6.70508 16.1889 7.05762 16.3573C 7.40918 16.5246 7.77734 16.6088 8.16113 16.6088C 8.64111 16.6088 9.08105 16.5363 9.48145 16.3928C 9.88086 16.2488 10.2495 16.0531 10.5854 15.8047C 10.9214 15.5567 11.229 15.2728 11.5098 14.9523C 11.7896 14.6329 12.0493 14.3049 12.2896 13.9687L 12.3853 13.9687C 12.3364 14.4651 12.3691 14.8809 12.481 15.2166C 12.5933 15.5527 12.7651 15.8245 12.9971 16.0329C 13.229 16.2408 13.5171 16.3889 13.8608 16.4771C 14.2056 16.5652 14.5767 16.6089 14.9771 16.6089C 15.937 16.6089 16.8374 16.4167 17.6772 16.0329C 18.5166 15.6485 19.2524 15.1288 19.8853 14.4732C 20.5171 13.8171 21.0127 13.0413 21.373 12.145C 21.7334 11.248 21.9131 10.2888 21.9131 9.26453C 21.9131 7.80878 21.6489 6.5083 21.1211 5.36493C 20.5928 4.22058 19.8643 3.2522 18.936 2.46021C 18.0083 1.6676 16.9121 1.0603 15.6484 0.635864C 14.3848 0.212463 13.0161 0 11.5439 0C 9.99219 0 8.52002 0.268188 7.12842 0.80365C 5.73633 1.34058 4.5127 2.10419 3.45654 3.09595C 2.40039 4.08875 1.56006 5.28943 0.936523 6.69641C 0.312012 8.10449 0 9.68085 0 11.425C 0 13.1368 0.271973 14.6452 0.81543 15.9487C 1.35986 17.2527 2.11572 18.3449 3.08398 19.2251C 4.05225 20.1049 5.19531 20.7685 6.51562 21.2172C 7.83545 21.6644 9.27197 21.889 10.8242 21.889C 11.7036 21.889 12.4834 21.8246 13.1641 21.6964C 13.8438 21.5687 14.5117 21.345 15.168 21.0251L 14.4238 18.7206C 13.9438 18.9447 13.4077 19.1126 12.8154 19.2251C 12.2236 19.3367 11.6958 19.3925 11.2324 19.3925C 9.85547 19.3925 8.63525 19.2043 7.57129 18.8286C 6.50781 18.4529 5.61572 17.9169 4.896 17.2213C 4.17578 16.5247 3.62793 15.6815 3.25146 14.6887C 2.87598 13.6964 2.68799 12.5769 2.68799 11.3286C 2.68799 10.0641 2.91162 8.8924 3.35986 7.81287C 3.80762 6.73236 4.42773 5.80048 5.21973 5.01611C 6.01221 4.23279 6.94434 3.61676 8.01611 3.16803C 9.08789 2.71979 10.248 2.49567 11.4956 2.49567C 12.5845 2.49567 13.6001 2.62445 14.5439 2.88049C 15.4883 3.1366 16.3086 3.54016 17.0049 4.09283C 17.7002 4.64453 18.2485 5.34528 18.6484 6.19299C 19.0479 7.04077 19.249 8.06494 19.249 9.26508C 19.249 10.0977 19.1484 10.8177 18.9487 11.4255C 18.748 12.0335 18.4888 12.5369 18.1685 12.937C 17.8477 13.3371 17.4883 13.6328 17.0884 13.8248C 16.688 14.017 16.2803 14.1128 15.8643 14.1128C 15.4487 14.1128 15.1802 13.9445 15.0601 13.6093C 14.9399 13.2732 14.9443 12.7286 15.0723 11.9767L 16.2246 5.47247ZM 12.3843 7.96912C 12.6079 8.06494 12.8237 8.20074 13.0317 8.3772L 12.4321 11.6896C 12.2559 12.0095 12.0557 12.3132 11.832 12.6018C 11.6079 12.8893 11.376 13.1458 11.1362 13.3694C 10.8955 13.5936 10.6479 13.7736 10.3916 13.9099C 10.1357 14.0453 9.89551 14.1133 9.67139 14.1133C 9.14355 14.1133 8.77197 13.9449 8.55615 13.6097C 8.33936 13.2736 8.23145 12.8411 8.23145 12.3128C 8.23145 11.8012 8.31201 11.2774 8.47168 10.7404C 8.63184 10.2056 8.85986 9.72083 9.15625 9.28882C 9.45166 8.85638 9.8042 8.50494 10.2124 8.23322C 10.6201 7.961 11.0645 7.82507 11.5439 7.82507C 11.8804 7.82507 12.1602 7.8728 12.3843 7.96912Z"/>
</defs>
</svg>
