<svg width="19" height="19" viewBox="0 0 19 19" version="1.1" xmlns="http://www.w3.org/2000/svg" xmlns:xlink="http://www.w3.org/1999/xlink">
<title>phone-receiver (1)</title>
<desc>Created using Figma</desc>
<g id="Canvas" transform="translate(-5523 -304)">
<g id="phone-receiver (1)">
<g id="Shape">
<use xlink:href="#path0_fill" transform="translate(5523 304.006)" fill="#FF7848"/>
</g>
</g>
</g>
<defs>
<path id="path0_fill" d="M 18.8324 14.8598C 18.8723 15.1657 18.7791 15.4316 18.5531 15.6576L 15.9003 18.2904C 15.7806 18.4234 15.6244 18.5365 15.4316 18.6295C 15.2388 18.7226 15.0493 18.7824 14.8632 18.809C 14.8499 18.809 14.8099 18.8124 14.7434 18.8191C 14.677 18.8257 14.5906 18.8291 14.4842 18.8291C 14.2315 18.8291 13.8226 18.7859 13.2575 18.6994C 12.6923 18.6129 12.0009 18.4001 11.1832 18.0611C 10.3652 17.722 9.43779 17.2133 8.40063 16.5352C 7.36347 15.8572 6.25976 14.9263 5.08959 13.7428C 4.15878 12.8253 3.38753 11.9477 2.77585 11.11C 2.16418 10.2722 1.67217 9.49763 1.29985 8.78622C 0.92749 8.07481 0.648245 7.42989 0.462083 6.85146C 0.27592 6.27302 0.149595 5.77437 0.0831084 5.3555C 0.0166217 4.93664 -0.00997301 4.60753 0.00332434 4.36818C 0.0166217 4.12883 0.0232703 3.99585 0.0232703 3.96926C 0.049865 3.78309 0.109703 3.59361 0.202784 3.4008C 0.295866 3.20798 0.408893 3.05174 0.541867 2.93206L 3.19469 0.279244C 3.38085 0.0930814 3.59361 0 3.83296 0C 4.00582 0 4.15874 0.049865 4.29172 0.149595C 4.42469 0.249325 4.53772 0.372326 4.6308 0.518596L 6.76502 4.56764C 6.8847 4.7804 6.91794 5.0131 6.86475 5.26575C 6.81156 5.5184 6.69854 5.73115 6.52567 5.90402L 5.54832 6.88138C 5.52172 6.90797 5.49845 6.95119 5.47851 7.01102C 5.45856 7.07086 5.44859 7.12073 5.44859 7.16062C 5.50178 7.43986 5.62145 7.759 5.80761 8.11803C 5.96718 8.43716 6.21318 8.82611 6.54562 9.28487C 6.87805 9.74363 7.35011 10.2722 7.96178 10.8705C 8.56016 11.4823 9.09206 11.9576 9.55747 12.2968C 10.0228 12.6357 10.4119 12.8851 10.7243 13.0447C 11.0368 13.2043 11.2762 13.3007 11.4424 13.3338L 11.6916 13.3837C 11.7182 13.3837 11.7615 13.3737 11.8213 13.3538C 11.8811 13.3338 11.9244 13.3106 11.951 13.2839L 13.0879 12.1271C 13.3274 11.9144 13.6065 11.808 13.9256 11.808C 14.1518 11.808 14.3312 11.8478 14.4642 11.9277L 14.4841 11.9277L 18.3336 14.2015C 18.613 14.3745 18.7791 14.5938 18.8324 14.8598Z"/>
</defs>
</svg>
