<svg width="18" height="14" viewBox="0 0 18 14" version="1.1" xmlns="http://www.w3.org/2000/svg" xmlns:xlink="http://www.w3.org/1999/xlink">
<title>message-closed-envelope</title>
<desc>Created using Figma</desc>
<g id="Canvas" transform="translate(-5574 -597)">
<g id="message-closed-envelope">
<g id="Shape">
<use xlink:href="#path0_fill" transform="translate(5574 597.044)" fill="#FFFFFF"/>
</g>
</g>
</g>
<defs>
<path id="path0_fill" fill-rule="evenodd" d="M 15.8271 0L 2.13135 0C 0.956055 0 0 0.918274 0 2.047L 0 11.593C 0 12.7216 0.956055 13.6399 2.13135 13.6399L 15.8271 13.6399C 17.0024 13.6399 17.9585 12.7216 17.9585 11.593L 17.9585 2.047C 17.9585 0.918274 17.0024 0 15.8271 0ZM 15.8271 11.8328L 2.13135 11.8328C 1.9585 11.8328 1.80713 11.7207 1.80713 11.593L 1.80713 3.30927L 8.00146 8.5387C 8.12842 8.64594 8.28955 8.70496 8.45605 8.70496L 9.50195 8.70502C 9.66846 8.70502 9.83008 8.64594 9.95703 8.5387L 16.1514 3.30908L 16.1514 11.593C 16.1514 11.7207 15.9995 11.8328 15.8271 11.8328ZM 2.95459 1.80713L 8.979 6.91058L 15.0039 1.80713L 2.95459 1.80713Z"/>
</defs>
</svg>
