<svg width="18" height="18" viewBox="0 0 18 18" version="1.1" xmlns="http://www.w3.org/2000/svg" xmlns:xlink="http://www.w3.org/1999/xlink">
<title>skype-logo</title>
<desc>Created using Figma</desc>
<g id="Canvas" transform="translate(-5583 -545)">
<g id="skype-logo">
<g id="Shape">
<use xlink:href="#path0_fill" transform="translate(5583.05 545)" fill="#FFFFFF"/>
</g>
</g>
</g>
<defs>
<path id="path0_fill" fill-rule="evenodd" d="M 16.7158 8.83118C 16.7158 9.34161 16.667 9.84045 16.5742 10.3239C 18.0918 12.0647 18.0225 14.7077 16.3652 16.3651C 14.708 18.0226 12.0649 18.0914 10.3242 16.574C 9.84082 16.6667 9.3418 16.7158 8.83154 16.7158C 4.47705 16.7158 0.946777 13.1858 0.946777 8.83118C 0.946777 8.32074 0.995605 7.82184 1.08838 7.33844C -0.429199 5.59766 -0.360352 2.95465 1.29736 1.29724C 2.95508 -0.360168 5.59766 -0.428955 7.33838 1.08838C 7.82178 0.995667 8.3208 0.946594 8.83105 0.946594C 13.1855 0.946594 16.7158 4.47662 16.7158 8.83118ZM 4.7002 11.3698C 4.7002 12.6436 6.646 13.6874 8.98145 13.6874C 10.9272 13.6874 12.9624 12.7143 12.9624 10.6094C 12.9624 8.8045 11.2104 8.18518 9.74219 7.8493L 8.66357 7.60156C 7.86719 7.4245 7.2832 7.28314 7.2832 6.6817C 7.2832 6.13318 7.86719 5.88556 8.76904 5.88556C 9.67969 5.88556 10.0918 6.25671 10.4551 6.58362C 10.7407 6.841 10.9961 7.07092 11.4404 7.07092C 12.1128 7.07092 12.52 6.53986 12.52 5.93842C 12.52 4.75317 10.5386 3.97485 8.57471 3.97485C 6.7876 3.97485 4.7002 4.75317 4.7002 6.85846C 4.7002 8.59235 5.86768 9.21149 7.37158 9.58307L 8.89307 9.95453L 9.02783 9.9881C 9.86816 10.1964 10.3794 10.3232 10.3794 10.9453C 10.3794 11.4758 9.79541 11.8828 8.87549 11.8828C 7.79248 11.8828 7.28906 11.371 6.85303 10.9277C 6.52002 10.5891 6.22656 10.2905 5.74365 10.2905C 5.01855 10.2905 4.7002 10.8038 4.7002 11.3698Z"/>
</defs>
</svg>
