<?xml version="1.0" standalone="no"?>
<!DOCTYPE svg PUBLIC "-//W3C//DTD SVG 20010904//EN"
 "http://www.w3.org/TR/2001/REC-SVG-20010904/DTD/svg10.dtd">
<svg version="1.0" xmlns="http://www.w3.org/2000/svg"
 width="150.000000pt" height="150.000000pt" viewBox="0 0 150.000000 150.000000"
 preserveAspectRatio="xMidYMid meet">
<metadata>
Created by potrace 1.15, written by Peter Selinger 2001-2017
</metadata>
<g transform="translate(0.000000,150.000000) scale(0.100000,-0.100000)"
fill="#000000" stroke="none">
<path d="M519 1248 c-27 -38 -79 -130 -79 -142 0 -2 48 -32 107 -67 59 -35
113 -68 120 -72 14 -8 48 39 59 80 9 34 -108 207 -158 234 -14 8 -24 1 -49
-33z"/>
<path d="M1026 1123 c-2 -3 -2 -11 1 -18 2 -8 -4 -19 -15 -26 -17 -11 -18 -15
-6 -23 11 -9 7 -11 -18 -10 -28 1 -36 -4 -48 -30 -16 -32 -73 -68 -95 -59 -19
7 -28 34 -15 47 8 8 9 6 5 -6 -10 -26 19 -33 60 -14 23 11 35 24 35 37 0 26
-25 34 -53 17 -40 -26 -77 -31 -84 -11 -12 30 -45 84 -50 80 -5 -6 90 -177 99
-177 9 0 218 121 218 126 0 3 -4 2 -10 -1 -5 -3 -10 -2 -10 4 0 5 8 15 18 21
14 9 13 10 -8 4 -22 -6 -23 -5 -11 10 8 9 20 15 28 12 8 -3 12 -2 9 3 -7 10
-43 21 -50 14z"/>
<path d="M329 868 c-1 -2 -3 -13 -4 -25 -3 -26 21 -38 41 -22 11 9 18 8 29 -1
13 -10 15 -9 15 9 0 12 4 20 9 17 5 -3 7 -16 3 -28 -3 -14 -2 -19 6 -14 7 4
12 2 12 -5 0 -7 10 -9 25 -6 24 4 25 3 10 -13 -20 -22 -12 -41 26 -63 21 -11
29 -22 25 -33 -3 -8 -2 -12 4 -9 17 10 11 -5 -22 -64 -46 -83 -17 -49 42 49
56 91 56 91 -5 121 -16 8 -15 5 5 -14 31 -29 34 -41 14 -58 -13 -11 -14 -9 -9
14 6 21 3 28 -11 33 -33 12 -46 26 -33 35 8 4 1 13 -20 23 -29 16 -31 15 -31
-1 0 -15 -2 -15 -9 -3 -6 8 -8 17 -5 22 3 4 -9 14 -26 23 -28 14 -30 14 -30
-1 0 -16 -1 -16 -18 -1 -16 15 -39 22 -43 15z"/>
<path d="M1068 788 l-118 -70 16 -27 c42 -71 40 -70 144 -61 122 12 151 17
173 35 18 13 18 15 -2 60 -13 30 -25 44 -32 39 -8 -4 -9 -3 -5 5 8 12 -38 91
-52 91 -4 -1 -60 -33 -124 -72z"/>
<path d="M502 525 c-19 -36 -30 -70 -26 -76 4 -7 3 -9 -3 -6 -13 8 -43 -62
-43 -97 0 -30 16 -36 101 -36 55 0 69 3 69 15 0 8 -5 15 -11 15 -6 0 -3 8 7
17 13 13 19 14 22 5 2 -6 10 -12 18 -12 11 0 14 23 14 120 l0 120 -58 0 -57 0
-33 -65z"/>
</g>
</svg>
