<svg xmlns="http://www.w3.org/2000/svg" xmlns:xlink="http://www.w3.org/1999/xlink" width="33" height="37" viewBox="0 0 33 37"><defs><path id="ct1ia" d="M176.48 324.77v35.46c0 .42-.35.77-.77.77h-30.87a.77.77 0 0 1-.77-.77v-35.46c0-.42.34-.77.77-.77h30.87c.42 0 .77.35.77.77zm-4.63 8.42h-3.09v3.09c0-1.7 1.38-3.09 3.09-3.09zm-1.55 3.09a1.54 1.54 0 1 0 3.1 0 1.54 1.54 0 0 0-3.1 0zm-3.08-10.74h-2.68a3.09 3.09 0 0 1-.03 6.11h2.7zm-3.12 1.51a1.54 1.54 0 1 0 0 3.09 1.54 1.54 0 0 0 0-3.09zm-3.06 1.14a3.1 3.1 0 0 1 2.63-2.65h-2.63zm0 3.46h2.65a3.1 3.1 0 0 1-2.65-2.65zm0 7.71h6.18v-6.17h-6.18zm0 7.71h6.18v-6.17h-6.18zm0 7.77h6.18v-6.23h-6.18zm-7.71-23.19h6.17v-6.1h-6.17zm0 7.71h6.17v-6.17h-6.17zm0 7.71h6.17v-6.17h-6.17zm0 7.77h6.17v-6.23h-6.17zm-7.72-23.19h6.18v-6.1h-2.49a3.09 3.09 0 1 1-1.2 0h-2.49zm1.55-3.08a1.54 1.54 0 1 0 3.08 0 1.54 1.54 0 0 0-3.08 0zm-1.55 10.8h6.18v-6.18h-6.18zm0 7.7h6.18V344a3.09 3.09 0 0 1-6.18 0zm0-3.08c0-1.7 1.39-3.09 3.09-3.09h-3.09V344zm3.09-3.09c1.7 0 3.08 1.39 3.09 3.08v-3.08zm0 1.55a1.54 1.54 0 1 0 0 3.09 1.54 1.54 0 0 0 0-3.1zm-3.09 12.4h6.18v-6.24h-6.18zm29.32 1.53h-29.32v3.08h29.32zm0-7.77h-6.17v6.23h6.17zm0-7.7h-6.17v6.16h6.17zm0-7.72h-3.08a3.09 3.09 0 1 1-3.09 3.09v3.08h6.17zm0-7.65h-6.17v6.11h6.17z"/><path id="ct1ib" d="M160.82 358.42a.77.77 0 1 0-1.1-1.1.77.77 0 1 0 1.1 1.1z"/><path id="ct1ic" d="M153.33 336.27a3.09 3.09 0 1 1 6.18.01 3.09 3.09 0 0 1-6.18 0zm1.54 0a1.54 1.54 0 1 0 3.1 0 1.54 1.54 0 0 0-3.1 0z"/><path id="ct1id" d="M161.04 343.98a3.09 3.09 0 1 1 6.18.01 3.09 3.09 0 0 1-6.18 0zm1.54 0a1.54 1.54 0 1 0 3.1 0 1.54 1.54 0 0 0-3.1 0z"/><path id="ct1ie" d="M153.33 351.7a3.09 3.09 0 1 1 6.18 0 3.09 3.09 0 0 1-6.18 0zm1.54 0a1.54 1.54 0 1 0 3.1-.01 1.54 1.54 0 0 0-3.1 0z"/><path id="ct1if" d="M174.93 351.7a3.09 3.09 0 1 1-6.18-.02 3.09 3.09 0 0 1 6.18.01zm-1.54 0a1.54 1.54 0 1 0-3.1 0 1.54 1.54 0 0 0 3.1 0z"/></defs><g><g transform="translate(-144 -324)"><g><use xlink:href="#ct1ia"/></g><g><use xlink:href="#ct1ib"/></g><g><use fill="#ff7d1b" xlink:href="#ct1ic"/></g><g><use fill="#ff7d1b" xlink:href="#ct1id"/></g><g><use fill="#ff7d1b" xlink:href="#ct1ie"/></g><g><use fill="#ff7d1b" xlink:href="#ct1if"/></g></g></g></svg>