<?xml version="1.0" standalone="no"?>
<!DOCTYPE svg PUBLIC "-//W3C//DTD SVG 20010904//EN"
 "http://www.w3.org/TR/2001/REC-SVG-20010904/DTD/svg10.dtd">
<svg version="1.0" xmlns="http://www.w3.org/2000/svg"
 width="150.000000pt" height="150.000000pt" viewBox="0 0 150.000000 150.000000"
 preserveAspectRatio="xMidYMid meet">
<metadata>
Created by potrace 1.15, written by Peter Selinger 2001-2017
</metadata>
<g transform="translate(0.000000,150.000000) scale(0.100000,-0.100000)"
fill="#000000" stroke="none">
<path d="M365 1289 c-16 -3 -26 -7 -21 -8 5 0 -1 -12 -14 -26 -26 -28 -21 -46
7 -24 16 13 17 12 4 -3 -15 -20 -2 -25 16 -7 9 9 14 5 19 -14 3 -15 10 -24 15
-22 4 3 25 -1 45 -10 49 -20 62 -19 66 8 12 73 -55 126 -137 106z"/>
<path d="M285 1257 c-22 -18 -30 -36 -35 -78 -8 -63 -4 -80 18 -72 11 5 14 2
9 -10 -8 -21 10 -32 28 -17 8 6 19 9 24 6 5 -4 13 -1 17 5 5 8 9 7 14 -2 7
-10 12 -10 23 -1 7 7 18 8 22 4 5 -4 5 -1 0 7 -4 7 -25 29 -46 48 -21 20 -36
39 -33 44 3 5 1 9 -4 9 -16 0 -23 30 -11 52 16 30 5 32 -26 5z"/>
<path d="M905 1138 c-11 -6 -23 -16 -27 -22 -4 -6 -8 -7 -8 -2 0 5 -9 1 -19
-8 -11 -10 -24 -15 -29 -12 -5 3 -15 -1 -22 -9 -7 -8 -10 -15 -7 -15 3 0 -5
-20 -18 -44 l-23 -44 26 -54 c18 -36 32 -52 43 -50 10 2 19 -5 22 -18 3 -11
12 -20 21 -20 22 0 20 20 -1 21 -11 0 -13 3 -5 6 6 2 10 9 6 14 -3 5 4 9 15 9
11 0 22 4 25 9 7 10 87 -25 98 -43 5 -8 13 -8 28 2 11 7 20 8 20 3 0 -6 -4
-13 -10 -16 -5 -3 -10 -13 -10 -21 0 -11 8 -9 34 8 30 20 75 71 47 53 -7 -3
-11 2 -11 15 0 13 4 19 12 14 7 -4 8 -3 4 5 -4 6 -3 18 3 25 23 27 -14 127
-40 110 -5 -3 -14 -2 -20 2 -8 4 -7 9 2 15 11 6 11 13 3 26 -15 25 -50 28 -58
6 -26 -74 -26 -73 5 -66 28 5 59 -13 59 -36 0 -14 -13 -14 -28 1 -7 7 -12 8
-12 2 0 -11 -42 -34 -60 -34 -6 0 -10 10 -10 23 0 16 -3 18 -9 8 -10 -16 -31
-6 -31 14 0 15 34 38 42 29 3 -3 9 12 12 33 4 21 9 46 12 56 4 14 -1 17 -28
17 -18 0 -42 -6 -53 -12z"/>
<path d="M1334 704 c5 -35 1 -48 -23 -81 -34 -47 -119 -104 -147 -99 -11 2
-27 -2 -37 -9 -16 -12 -14 -15 25 -38 33 -19 53 -24 86 -20 37 3 46 0 71 -25
24 -23 35 -27 65 -24 36 4 42 13 38 64 -1 9 16 49 38 88 22 40 40 76 40 80 0
4 -13 22 -30 40 -24 26 -36 31 -65 29 -25 -3 -39 2 -50 16 -15 19 -16 18 -11
-21z"/>
<path d="M547 703 c16 -26 16 -27 0 -14 -12 9 -17 10 -17 2 0 -6 7 -14 15 -17
8 -4 15 -15 15 -26 0 -17 -5 -19 -32 -15 -30 4 -112 24 -197 47 -19 5 -41 5
-49 1 -8 -5 -34 -2 -60 5 -25 8 -57 14 -71 13 -25 -1 -25 -1 4 -9 17 -4 47
-17 68 -30 35 -21 39 -21 55 -7 10 9 27 14 37 12 72 -14 77 -16 71 -30 -4 -11
0 -12 20 -5 14 6 33 10 42 9 9 0 3 -6 -15 -12 -51 -19 -46 -22 40 -22 45 0 85
5 89 10 4 6 11 10 15 10 5 0 20 9 34 20 19 15 24 26 19 44 -6 25 -45 47 -55
31 -4 -6 -14 -6 -26 1 -20 10 -20 10 -2 -18z"/>
<path d="M814 633 c-16 -3 -23 -13 -26 -39 -4 -31 -2 -34 23 -34 37 0 59 -9
59 -25 0 -7 6 -16 13 -18 7 -4 6 -6 -4 -6 -9 -1 -24 -12 -32 -25 -25 -38 -49
-58 -63 -52 -8 3 -14 -5 -17 -22 -6 -35 -6 -92 0 -69 3 12 15 17 39 17 31 0
34 -3 34 -29 0 -35 13 -41 95 -41 61 0 63 1 78 32 11 23 13 36 6 45 -12 13 -3
36 11 28 16 -10 38 7 51 37 11 27 10 32 -4 43 -22 16 -22 31 1 44 16 10 15 10
-3 11 -11 0 -26 9 -33 21 -12 19 -11 19 8 9 13 -7 20 -7 20 0 0 5 -7 10 -15
10 -9 0 -26 11 -39 25 l-23 25 5 -28 5 -27 -39 35 c-22 19 -33 28 -26 20 24
-27 12 -32 -19 -6 -29 25 -54 29 -105 19z"/>
<path d="M495 588 c-11 -7 -34 -25 -50 -42 -59 -59 -77 -70 -97 -57 -11 7 -18
7 -18 1 0 -5 5 -10 10 -10 6 0 10 -7 10 -16 0 -8 -4 -13 -9 -10 -5 4 -11 1
-13 -6 -3 -9 -13 -7 -34 6 -24 16 -26 16 -15 3 7 -9 9 -17 3 -17 -13 0 -28 20
-35 50 -8 32 -60 62 -93 54 -13 -3 -21 -11 -18 -16 4 -6 -2 -5 -14 1 -25 13
-62 14 -62 2 0 -5 -3 -16 -6 -24 -8 -22 29 -31 71 -17 23 8 32 16 28 26 -3 9
2 14 15 14 33 0 52 -11 52 -30 0 -28 46 -77 77 -83 19 -4 37 0 55 14 41 29 62
26 53 -8 -9 -34 -7 -85 4 -93 4 -3 10 -13 14 -22 4 -11 17 -18 30 -18 14 0 38
-3 55 -6 l31 -6 -1 51 c-1 40 3 56 20 74 12 13 22 29 22 35 0 6 11 19 24 27
27 18 59 9 69 -20 5 -11 12 -12 29 -6 17 6 25 19 29 47 4 22 3 40 -2 42 -5 2
-6 15 -3 29 4 14 3 24 -2 21 -5 -2 -22 -10 -39 -17 -80 -35 -98 -47 -107 -73
-6 -16 -14 -26 -18 -23 -5 3 -11 1 -15 -5 -18 -29 -103 14 -91 47 3 8 6 19 6
24 0 5 19 22 42 39 39 29 35 42 -7 18z"/>
</g>
</svg>
