<svg xmlns="http://www.w3.org/2000/svg" xmlns:xlink="http://www.w3.org/1999/xlink" width="41" height="37" viewBox="0 0 41 37"><defs><path id="6s38a" d="M49.78 330.74H39.71a.84.84 0 0 0 0 1.68h10.07a.84.84 0 0 0 0-1.68z"/><path id="6s38b" d="M49.78 334.1H39.71a.84.84 0 1 0 0 1.68h10.07a.84.84 0 0 0 0-1.68z"/><path id="6s38c" d="M49.78 337.46H39.71a.84.84 0 1 0 0 1.68h10.07a.84.84 0 0 0 0-1.68z"/><path id="6s38d" d="M49.78 340.82H39.71a.84.84 0 0 0 0 1.68h10.07a.84.84 0 0 0 0-1.68z"/><path id="6s38e" d="M49.78 344.18H39.71a.84.84 0 0 0 0 1.68h10.07a.84.84 0 1 0 0-1.68z"/><path id="6s38f" d="M44.75 347.54H39.7a.84.84 0 1 0 0 1.68h5.04a.84.84 0 0 0 0-1.68z"/><path id="6s38g" d="M73.29 328.23v28.55c0 .46-.38.84-.84.84h-7.56v2.52a.84.84 0 0 1-1.21.75l-1.3-.65-1.3.65a.84.84 0 0 1-1.22-.75v-2.52h-4c-.54.25-1.86.84-2.72.84-.86 0-2.17-.59-2.7-.84h-16.6a.84.84 0 0 1-.84-.84v-28.55c0-.47.38-.84.84-.84h1.67v-.84c0-.46.37-.84.84-.84h10.67c3.52 0 5.27.72 6.12 1.34.86-.62 2.61-1.34 6.13-1.34h.59v-.84c0-.46.37-.84.84-.84h3.36c.46 0 .83.38.83.84v.84h5.05c.47 0 .84.38.84.84v.84h1.67c.46 0 .84.37.84.84zM51.85 356.4c-.1-.1-.23-.2-.37-.29-1.2-.84-2.96-1.01-4.21-1.01H36.35a.84.84 0 0 1-.84-.84v-25.2h-.83v26.88h15.95c.13 0 .26.03.37.09.23.11.54.25.85.37zm.45-27.87c-.35-.31-1.62-1.14-5.28-1.14H37.2v26.03h10.08c2.1 0 3.8.41 5.03 1.22zm7.56 27.4v-.83h-.84c-1.25 0-3 .17-4.2 1.01-.15.1-.28.2-.38.3l.85-.38a.83.83 0 0 1 .37-.1zm0-28.54h-.6c-3.65 0-4.92.83-5.28 1.14v26.11c1.25-.8 2.94-1.22 5.04-1.22h.84zm2.9 31.16l.46.23V325.7h-1.68v33.07l.46-.23a.82.82 0 0 1 .75 0zm2.13-5.13h4.21v-26.03h-4.2zm6.72 2.52v-26.87h-.83v25.19c0 .46-.37.84-.84.84H64.9v.84z"/></defs><g><g transform="translate(-33 -324)"><g><use fill="#2b2b2b" xlink:href="#6s38a"/></g><g><use fill="#2b2b2b" xlink:href="#6s38b"/></g><g><use fill="#2b2b2b" xlink:href="#6s38c"/></g><g><use fill="#2b2b2b" xlink:href="#6s38d"/></g><g><use fill="#2b2b2b" xlink:href="#6s38e"/></g><g><use fill="#2b2b2b" xlink:href="#6s38f"/></g><g><use fill="#ff7d1b" xlink:href="#6s38g"/></g></g></g></svg>