<svg xmlns="http://www.w3.org/2000/svg" xmlns:xlink="http://www.w3.org/1999/xlink" width="37" height="37" viewBox="0 0 37 37"><defs><path id="r22za" d="M274.75 352.9a1.54 1.54 0 0 0 2.06 1.46l1.02-.36v7H247v-7l1.03.36c.16.06.34.1.51.1a1.54 1.54 0 1 0-.51-3l-1.03.36v-21.65h6.62l-.37 1.03a1.54 1.54 0 1 0 2.9 0l-.35-1.03h7.39v7l-1.03-.36a1.54 1.54 0 1 0 0 2.9l1.03-.36v5.47h14.64v7l-1.02-.36a1.54 1.54 0 0 0-2.06 1.45zm-26.2-8.08H254l-.36 1.02a1.55 1.55 0 0 0 1.45 2.06 1.54 1.54 0 0 0 1.46-2.06l-.37-1.02h5.47v-3.47a3.09 3.09 0 0 1 0-6.17v-3.47h-3.86a3.09 3.09 0 0 1-6.16 0h-3.09zm14.64 9.63a1.54 1.54 0 1 0-.52-3l-1.02.37v-5.46h-3.47a3.09 3.09 0 0 1-6.17 0h-3.47v3.47a3.09 3.09 0 0 1 0 6.16v3.47h13.1V354l1.03.36c.17.06.34.1.52.1zm10.02-1.54c0-1.7 1.38-3.08 3.08-3.08v-3.47h-13.1v3.47a3.09 3.09 0 0 1 0 6.16v3.47h13.1V356a3.09 3.09 0 0 1-3.08-3.08z"/><path id="r22zb" d="M280.92 332.1a1.54 1.54 0 0 0 2.05 1.45l1.03-.37v7H279a3.09 3.09 0 0 1-6.17 0h-5v-5a3.09 3.09 0 0 1 0-6.17V324H284v7l-1.03-.36a1.55 1.55 0 0 0-2.05 1.45zm-1.54 0c0-1.7 1.38-3.09 3.08-3.09v-3.47h-13.1V331l-1.03-.36a1.54 1.54 0 1 0 0 2.9l1.03-.36v5.47h5.46l-.37 1.02a1.54 1.54 0 1 0 2.9 0l-.35-1.02h5.46v-3.47a3.09 3.09 0 0 1-3.08-3.09z"/></defs><g><g transform="translate(-247 -324)"><g><use fill="#2b2b2b" xlink:href="#r22za"/></g><g><use fill="#ff7d1b" xlink:href="#r22zb"/></g></g></g></svg>