<?xml version="1.0" standalone="no"?>
<!DOCTYPE svg PUBLIC "-//W3C//DTD SVG 20010904//EN"
 "http://www.w3.org/TR/2001/REC-SVG-20010904/DTD/svg10.dtd">
<svg version="1.0" xmlns="http://www.w3.org/2000/svg"
 width="150.000000pt" height="149.000000pt" viewBox="0 0 150.000000 149.000000"
 preserveAspectRatio="xMidYMid meet">
<metadata>
Created by potrace 1.15, written by Peter Selinger 2001-2017
</metadata>
<g transform="translate(0.000000,149.000000) scale(0.100000,-0.100000)"
fill="#000000" stroke="none">
<path d="M1175 1224 l-26 -25 -19 23 c-14 17 -21 20 -30 11 -9 -8 -8 -11 6
-10 11 1 20 -6 22 -17 5 -22 -19 -40 -30 -23 -6 9 -8 9 -8 0 0 -6 5 -15 10
-18 13 -8 13 -25 1 -25 -5 0 -17 7 -25 16 -18 18 -20 7 -7 -30 9 -22 8 -24
-10 -21 -16 3 -19 0 -14 -15 5 -16 2 -20 -15 -20 -18 0 -19 -3 -9 -21 9 -18 8
-24 -5 -31 -9 -5 -16 -14 -16 -21 0 -7 -10 -17 -22 -22 -12 -6 -24 -17 -26
-25 -4 -12 -3 -13 10 -2 13 10 17 10 21 -1 4 -11 -4 -14 -31 -13 -21 1 -41 -4
-47 -11 -6 -6 -22 -9 -36 -6 -20 3 -28 13 -33 34 -5 25 -10 29 -41 29 -24 0
-35 5 -35 15 0 19 -33 27 -101 23 -53 -3 -54 -4 -57 -34 -3 -26 -7 -31 -23
-27 -10 3 -30 -2 -44 -11 -24 -16 -25 -16 -27 6 0 13 -1 29 -1 35 1 7 -3 10
-8 7 -5 -3 -9 1 -9 9 0 8 -7 21 -17 28 -15 13 -16 11 -11 -13 3 -16 1 -28 -3
-28 -5 0 -6 -14 -2 -31 5 -29 4 -31 -16 -24 -12 3 -21 2 -21 -3 0 -6 -12 -15
-27 -20 l-28 -10 29 -11 c23 -9 31 -9 37 1 6 10 11 10 20 1 9 -9 9 -16 -1 -28
-10 -12 -10 -19 -2 -27 9 -9 6 -14 -11 -22 -13 -7 -24 -24 -27 -41 -4 -23 -10
-30 -29 -30 -30 0 -68 -61 -54 -85 11 -18 5 -43 -8 -34 -5 3 -9 0 -9 -6 0 -7
7 -9 15 -6 11 4 19 -3 25 -20 13 -32 13 -31 -7 -31 -10 1 -34 0 -53 -1 l-35
-2 25 -24 c20 -18 30 -21 48 -15 13 5 31 9 40 9 16 -1 16 -2 -1 -14 -16 -13
-43 -73 -36 -81 2 -2 20 -5 39 -7 33 -3 35 -1 38 29 3 33 25 59 41 49 5 -3 6
-21 1 -41 -4 -19 -4 -35 0 -35 5 0 10 10 12 23 2 15 11 23 29 25 24 3 25 0 27
-45 4 -83 6 -84 60 -67 26 7 48 14 50 14 1 0 2 -20 2 -44 0 -77 12 -94 95
-131 l75 -34 74 33 c41 19 79 43 85 54 6 12 11 45 11 75 l0 55 45 -13 c50 -16
48 -17 58 63 3 28 1 32 -17 27 -12 -3 -7 2 9 10 17 8 42 12 58 9 15 -3 27 -3
27 0 0 13 -63 76 -81 81 -11 4 -19 10 -19 15 0 12 30 21 43 13 15 -9 67 -12
67 -3 0 4 -15 13 -32 20 -87 32 -94 43 -54 78 21 18 24 27 19 59 -10 61 -9 68
9 65 9 -1 31 11 49 28 19 16 30 30 26 30 -4 0 -2 10 4 23 11 22 11 22 -15 -2
-14 -14 -26 -21 -26 -17 0 4 -9 2 -20 -4 -26 -14 -27 9 -4 46 24 35 9 42 -22
11 -15 -15 -30 -27 -34 -27 -11 0 -21 30 -14 41 10 17 -7 31 -22 18 -8 -6 -14
-8 -14 -3 0 4 12 19 28 31 15 13 19 20 10 17 -24 -8 -23 13 1 28 10 6 17 17
14 24 -5 14 33 38 47 29 13 -8 52 14 45 25 -3 5 3 14 12 20 17 11 17 11 0 6
-10 -3 -23 -6 -29 -6 -7 0 -6 -5 1 -14 9 -11 7 -15 -8 -19 -36 -9 -42 8 -12
40 16 18 27 34 24 37 -3 3 13 17 36 33 39 27 51 43 31 43 -5 0 -21 -12 -35
-26z m-222 -616 c2 -7 3 -24 1 -38 -1 -14 -3 -87 -3 -162 -1 -85 -5 -138 -11
-138 -5 0 -10 7 -10 16 0 10 -5 12 -12 7 -7 -4 -24 -6 -38 -5 -20 2 -28 -5
-40 -30 -21 -47 -51 -48 -75 -3 -16 29 -25 35 -52 35 l-33 0 -1 133 c-1 72 -3
123 -6 112 -11 -45 -23 -37 -23 16 0 31 3 59 7 62 3 4 70 7 149 7 104 0 143
-3 147 -12z"/>
</g>
</svg>
